<svg xmlns="http://www.w3.org/2000/svg" width="44" height="44" viewBox="0 0 44 44">
  <g id="组_3172" data-name="组 3172" transform="translate(-165.5 -116.5)">
    <path id="Fill_" data-name="Fill " d="M0,22A22,22,0,1,1,22,44,22.024,22.024,0,0,1,0,22Z" transform="translate(165.5 116.5)" fill="#f25151"/>
    <path id="Fill_1" data-name="Fill 1" d="M9.936,7.949l5.989-5.843a1.212,1.212,0,0,0,0-1.745,1.287,1.287,0,0,0-1.788,0L8.148,6.2,2.158.361A1.286,1.286,0,0,0,.37.361a1.212,1.212,0,0,0,0,1.745L6.36,7.949.371,13.792a1.212,1.212,0,0,0,0,1.744,1.287,1.287,0,0,0,1.788,0L8.148,9.694l5.989,5.843a1.286,1.286,0,0,0,1.788,0,1.212,1.212,0,0,0,0-1.744Z" transform="translate(179.352 130.425)" fill="#fff"/>
  </g>
</svg>
