<svg xmlns="http://www.w3.org/2000/svg" width="44" height="44" viewBox="0 0 44 44">
  <g id="组_3172" data-name="组 3172" transform="translate(-165.5 -116.5)">
    <path id="Fill_" data-name="Fill " d="M0,22A22,22,0,1,1,22,44,22.024,22.024,0,0,1,0,22Z" transform="translate(165.5 116.5)" fill="#17bb79"/>
    <path id="Shape" d="M7.769,15.231a.993.993,0,0,1-.707-.293L.294,8.171A1,1,0,0,1,1.706,6.756L7.77,12.818,20.294.294a1,1,0,0,1,1.412,1.413L8.476,14.939a1,1,0,0,1-.707.292Z" transform="translate(176.5 130.5)" fill="#fff"/>
  </g>
</svg>
