<?xml version="1.0" standalone="no"?><!DOCTYPE svg PUBLIC "-//W3C//DTD SVG 1.1//EN" "http://www.w3.org/Graphics/SVG/1.1/DTD/svg11.dtd"><svg t="1634633787803" class="icon" viewBox="0 0 1024 1024" version="1.1" xmlns="http://www.w3.org/2000/svg" p-id="2099" xmlns:xlink="http://www.w3.org/1999/xlink" width="200" height="200"><defs><style type="text/css"></style></defs><path d="M503.606557 503.606557m-503.606557 0a503.606557 503.606557 0 1 0 1007.213115 0 503.606557 503.606557 0 1 0-1007.213115 0Z" fill="#FFFFFF" p-id="2100"></path><path d="M621.366557 703.907672v-97.246426h-250.12459v97.246426l125.028722 111.12918z" fill="#F6D1C0" p-id="2101"></path><path d="M814.600393 749.400131l-171.897704-40.456393a27.597639 27.597639 0 0 1-7.218361-2.904131l-139.230426 81.21495-133.791476-85.143082a27.681574 27.681574 0 0 1-12.640524 6.832263l-171.914492 40.456393a55.56459 55.56459 0 0 0-42.840131 54.087344v108.795804c0 15.343213 12.439082 94.929836 27.782295 94.929836h666.808656c15.343213 0 27.782295-79.586623 27.782295-94.929836v-108.795804a55.56459 55.56459 0 0 0-42.840132-54.087344z" fill="#F4FBFF" p-id="2102"></path><path d="M371.241967 606.661246v102.601443c157.494557 56.739672 250.12459-85.277377 250.12459-85.277378v-17.324065h-250.12459z" fill="#F0C2AD" p-id="2103"></path><path d="M315.677377 287.156459l12.103344 266.323934a83.346885 83.346885 0 0 0 33.221246 62.900459l57.444722 43.075148a83.363672 83.363672 0 0 0 50.008131 16.669377h55.56459a83.346885 83.346885 0 0 0 50.008131-16.669377l57.444721-43.075148a83.346885 83.346885 0 0 0 33.25482-62.900459l12.136918-266.323934z" fill="#FFEBD2" p-id="2104"></path><path d="M454.605639 342.721049c55.56459 0 138.911475-13.899541 158.686427-55.56459H315.677377l12.103344 266.323934a83.346885 83.346885 0 0 0 33.221246 62.900459l57.444722 43.075148a83.363672 83.363672 0 0 0 50.008131 16.669377h27.782295c-27.782295 0-83.346885-55.56459-83.346885-125.028721v-166.693771a44.350951 44.350951 0 0 1 41.715409-41.681836z" fill="#F1BFB3" opacity=".4" p-id="2105"></path><path d="M237.064393 849.903213L147.053115 769.040787a55.396721 55.396721 0 0 0-11.969049 34.429902l-16.786886 108.81259c0 15.343213 29.225967 27.782295 44.569181 27.782295l97.246426 33.57377v-38.408393c0-19.791738-8.376656-72.183607-23.048394-85.327738zM755.476984 849.903213l90.011278-80.862426a55.396721 55.396721 0 0 1 11.969049 34.429902l16.786886 108.795803c0 15.343213-29.225967 27.782295-44.569181 27.782295L732.42859 956.852459v-55.195279a69.464131 69.464131 0 0 1 23.048394-51.753967z" fill="#E3F0F8" p-id="2106"></path><path d="M531.002754 1024h-69.464131l8.67882-208.963148h52.039344z" fill="#010609" p-id="2107"></path><path d="M531.002754 787.254557h-69.464131v26.137181a15.527869 15.527869 0 0 0 15.527869 15.527869h38.391606a15.527869 15.527869 0 0 0 15.527869-15.527869v-26.137181z" fill="#010609" p-id="2108"></path><path d="M369.277902 672.969443l126.976 114.285114a479.164852 479.164852 0 0 0-79.401968 54.137705 17.827672 17.827672 0 0 1-27.597639-6.244721l-59.694164-131.239869 18.868459-28.302688a13.882754 13.882754 0 0 1 20.849312-2.635541zM623.246689 672.969443l-126.976 114.285114a479.164852 479.164852 0 0 1 79.452327 54.137705 17.827672 17.827672 0 0 0 27.59764-6.244721l59.643803-131.239869-18.868459-28.302688a13.882754 13.882754 0 0 0-20.849311-2.635541z" fill="#E3F0F8" p-id="2109"></path><path d="M580.490492 195.113967l13.026623 92.092853c59.442361 11.75082 68.020459 105.136262 69.229115 131.777049a27.396197 27.396197 0 0 0 4.398163 13.58059l22.679082 35.252459a133.086426 133.086426 0 0 1 27.782295-97.246426s12.288-231.088262-137.115278-175.456525z" fill="#010609" p-id="2110"></path><path d="M703.75659 461.824l-15.678951 62.73259a16.786885 16.786885 0 0 1-16.199344 12.657312 16.786885 16.786885 0 0 1-16.568656-14.638164l-8.040918-64.159476a28.772721 28.772721 0 0 1 28.554492-32.348328 28.772721 28.772721 0 0 1 27.933377 35.756066z" fill="#FFEBD2" p-id="2111"></path><path d="M328.97259 170.219016l20.547148 14.033836c-92.898623 68.591213-75.524197 186.250492-75.524197 186.250492 27.782295 27.782295 27.782295 97.246426 27.782295 97.246426l27.782295-27.782295s-10.72682-80.258098 41.681836-111.12918c48.681967-28.655213 91.169574-13.899541 134.580459-13.899541 116.349902 0 148.899672-43.847344 143.259279-97.246426-2.937705-27.631213-45.173508-85.176656-152.827803-83.397246-43.444459 0.788984-125.028721 13.933115-167.281312 35.923934z" fill="#0B1A23" p-id="2112"></path><path d="M320.881311 302.785049a152.609574 152.609574 0 0 1 28.638427-118.51541c-92.898623 68.591213-75.524197 186.233705-75.524197 186.233705 27.782295 27.782295 27.782295 97.246426 27.782295 97.246426l27.782295-27.782295s-10.72682-80.258098 41.681836-111.12918c48.681967-28.655213 91.169574-13.899541 134.580459-13.899541a341.310951 341.310951 0 0 0 50.092066-3.357377c-89.608393 2.920918-142.419934-64.948459-235.033181-8.796328z" fill="#010609" p-id="2113"></path><path d="M288.768 461.824l15.678951 62.73259a16.786885 16.786885 0 0 0 16.199344 12.657312 16.786885 16.786885 0 0 0 16.568656-14.638164l8.024131-64.159476a28.772721 28.772721 0 0 0-28.537705-32.348328 28.772721 28.772721 0 0 0-27.933377 35.756066z" fill="#F9DAC6" p-id="2114"></path><path d="M676.847213 912.283279h-97.229639a13.899541 13.899541 0 0 0-13.899541 13.899541v13.899541h125.028721v-13.899541a13.899541 13.899541 0 0 0-13.899541-13.899541z" fill="#E4EAF6" p-id="2115"></path></svg>