<svg xmlns="http://www.w3.org/2000/svg" xmlns:xlink="http://www.w3.org/1999/xlink" width="68" height="68" viewBox="0 0 68 68">
  <defs>
    <linearGradient id="linear-gradient" x1="0.182" y1="0.117" x2="0.8" y2="0.888" gradientUnits="objectBoundingBox">
      <stop offset="0" stop-color="#53b3ff"/>
      <stop offset="1" stop-color="#1497fe"/>
    </linearGradient>
    <filter id="椭圆_54" x="0" y="0" width="68" height="68" filterUnits="userSpaceOnUse">
      <feOffset dy="3" input="SourceAlpha"/>
      <feGaussianBlur stdDeviation="3" result="blur"/>
      <feFlood flood-color="#1497fe" flood-opacity="0.102"/>
      <feComposite operator="in" in2="blur"/>
      <feComposite in="SourceGraphic"/>
    </filter>
  </defs>
  <g id="组_3007" data-name="组 3007" transform="translate(-300.973 -621.973)">
    <g transform="matrix(1, 0, 0, 1, 300.97, 621.97)" filter="url(#椭圆_54)">
      <circle id="椭圆_54-2" data-name="椭圆 54" cx="25" cy="25" r="25" transform="translate(9 6)" fill="url(#linear-gradient)"/>
    </g>
    <g id="组_16" data-name="组 16" transform="translate(318.741 635.492)">
      <rect id="矩形" width="32" height="32" transform="translate(0.233 0.482)" fill="none" opacity="0"/>
      <g id="组_8" data-name="组 8" transform="translate(5.019 2.068)">
        <path id="路径" d="M8.214.131a23.261,23.261,0,0,0-3.24.457c-2.116.434-3.816,1.3-4.556,2.785A4.159,4.159,0,0,0,0,5.2a4.219,4.219,0,0,0,.407,1.81c.713,1.469,2.226,2.282,4.257,2.729l.974.2c.636.122,1.286.216,1.943.281l.6.05-.1-.016a4.847,4.847,0,0,0,.715.085l.2.008.4,0a34.783,34.783,0,0,0,4.814-.077,21.8,21.8,0,0,0,2.605-.338l.648-.134c2.178-.428,3.82-1.247,4.556-2.791a4.214,4.214,0,0,0,0-3.62c-.733-1.54-2.355-2.353-4.576-2.808a23.555,23.555,0,0,0-2.6-.4L14.213.131A34.278,34.278,0,0,0,8.214.131Z" transform="translate(0 17.4)" fill="#f9fafc"/>
        <path id="路径-2" data-name="路径" d="M7.523,0a7.523,7.523,0,1,0,7.523,7.523A7.523,7.523,0,0,0,7.523,0Z" transform="translate(3.696)" fill="#f9fafc"/>
      </g>
    </g>
  </g>
</svg>
