<svg xmlns="http://www.w3.org/2000/svg" width="90" height="90" viewBox="0 0 90 90">
  <g id="组_3181" data-name="组 3181" transform="translate(-231 -121)">
    <rect id="矩形_578" data-name="矩形 578" width="90" height="90" transform="translate(231 121)" fill="none"/>
    <g id="文件_1_" data-name="文件 (1)" transform="translate(231.633 136.119)">
      <g id="Floor" transform="translate(0 0.907)">
        <path id="路径_269" data-name="路径 269" d="M1145,477.363s4.464-3.721,6.958-3.986,2.761,1.915,4.144,1.969,2.229-3.243,4.675-3.932,10.467,5.847,10.467,5.847Z" transform="translate(-1092.798 -471.362)" fill="#d0e7fd" opacity="0.46"/>
        <path id="路径_270" data-name="路径 270" d="M189,636.412h22.345s-1.839-3.661-5.039-3.449-3.46-3.753-7.669-3.384S189,636.412,189,636.412Z" transform="translate(-188.648 -620.974)" fill="#d0e7fd" opacity="0.46"/>
        <ellipse id="椭圆_48" data-name="椭圆 48" cx="44.367" cy="3.697" rx="44.367" ry="3.697" transform="translate(0 50.855)" fill="#eaebef"/>
      </g>
      <g id="Mail_Sent" transform="translate(10.82)">
        <path id="路径_271" data-name="路径 271" d="M511.277,859.18H459.732A3.731,3.731,0,0,1,456,855.448V827.831a3.731,3.731,0,0,1,3.732-3.731h51.546a3.731,3.731,0,0,1,3.731,3.731v27.623A3.73,3.73,0,0,1,511.277,859.18Z" transform="translate(-451.987 -804.063)" fill="#91bbfc"/>
        <path id="路径_272" data-name="路径 272" d="M586.277,528.614V549.1H536v-20.49A2.661,2.661,0,0,1,538.707,526H583.57A2.661,2.661,0,0,1,586.277,528.614Z" transform="translate(-527.648 -522.13)" fill="#f1f4f9"/>
        <path id="路径_273" data-name="路径 273" d="M586.277,952v8.238a2.661,2.661,0,0,1-2.706,2.614l-20.886,7.609a4.506,4.506,0,0,1-3.086,0l-20.892-7.609A2.664,2.664,0,0,1,536,960.238V952Z" transform="translate(-527.648 -925.026)" fill="#f1f4f9"/>
        <path id="路径_274" data-name="路径 274" d="M542.047,1328.9h-13.4a.653.653,0,0,1-.651-.651v-.6a.653.653,0,0,1,.651-.651h13.4a.653.653,0,0,1,.651.651v.6A.653.653,0,0,1,542.047,1328.9Z" transform="translate(-520.081 -1279.687)" fill="#f7f7f7"/>
        <g id="组_356" data-name="组 356" transform="translate(0 20.629)">
          <path id="路径_275" data-name="路径 275" d="M404.237,846.834H382.651a.653.653,0,0,1-.651-.651V835.651a.653.653,0,0,1,.651-.651h21.586a.653.653,0,0,1,.651.651v10.532A.653.653,0,0,1,404.237,846.834Z" transform="translate(-382 -835)" fill="#d0e7fd"/>
          <path id="路径_276" data-name="路径 276" d="M737.2,948.916l3.623,4.2V944.1Z" transform="translate(-717.935 -938.183)" fill="#d0e7fd"/>
          <path id="路径_277" data-name="路径 277" d="M448.727,871.021H431.5a.6.6,0,0,1-.6-.6V870.2a.6.6,0,0,1,.6-.6h17.231a.6.6,0,0,1,.6.6v.228A.6.6,0,0,1,448.727,871.021Z" transform="translate(-428.248 -867.723)" fill="#f7f7f7"/>
          <path id="路径_278" data-name="路径 278" d="M448.727,922.321H431.5a.6.6,0,0,1-.6-.6V921.5a.6.6,0,0,1,.6-.6h17.231a.6.6,0,0,1,.6.6v.228A.6.6,0,0,1,448.727,922.321Z" transform="translate(-428.248 -916.241)" fill="#f7f7f7"/>
          <path id="路径_279" data-name="路径 279" d="M440.776,973.521H431.5a.6.6,0,0,1-.6-.6V972.7a.6.6,0,0,1,.6-.6h9.28a.6.6,0,0,1,.6.6v.228A.6.6,0,0,1,440.776,973.521Z" transform="translate(-428.248 -964.664)" fill="#f7f7f7"/>
        </g>
        <g id="组_358" data-name="组 358" transform="translate(22.455)">
          <circle id="椭圆_49" data-name="椭圆 49" cx="9.243" cy="9.243" r="9.243" fill="#0064fb"/>
          <g id="组_357" data-name="组 357" transform="translate(2.825 4.729)">
            <path id="路径_280" data-name="路径 280" d="M879.32,551.306l-3.938-3.661a1.2,1.2,0,1,1,1.633-1.763l2.321,2.159,6.487-5.89a1.2,1.2,0,0,1,1.616,1.779Z" transform="translate(-874.997 -541.839)" fill="#f7f7f7"/>
          </g>
        </g>
      </g>
      <g id="Person" transform="translate(49.228 22.75)">
        <path id="路径_281" data-name="路径 281" d="M1100.309,869.5s-1.9,2.764-3.027,2.582c-1.491-.245-3.552-.557-3.932-.914s-1.22-1.092-1.383-1.048.38.669.326.8a13.471,13.471,0,0,1-1.573.446c-.418.156-1.02.459,0,.312,1.247-.178.38.223,2.278.089.727-.049,4.279,1.775,5.152,1.605.922-.178,3.579-3.21,3.579-3.21l-1.41-.669" transform="translate(-1090.159 -863.725)" fill="#fbd9d4"/>
        <g id="组_359" data-name="组 359" transform="translate(7.787)">
          <path id="路径_282" data-name="路径 282" d="M1286.1,1434.7c.06.611.1,1.092.13,1.337.358.036.721.085,1.085.1l.19-1.418C1287.038,1434.709,1286.567,1434.7,1286.1,1434.7Z" transform="translate(-1283.26 -1403.724)" fill="#efb68f"/>
          <path id="路径_283" data-name="路径 283" d="M1236.717,1464.774s-3.731.477-2.853.781a18.272,18.272,0,0,0,3.78.209l.141-1.065c-.364-.014-.727-.062-1.085-.1Z" transform="translate(-1233.731 -1432.291)" fill="#0e538c"/>
          <path id="路径_284" data-name="路径 284" d="M1276.98,1021.29l.705-3.79h-4.068s-.705,10.211-.542,12.619c.1,1.534.364,4.343.537,6.171.548,0,1.1.009,1.643.018l.754-5.658Z" transform="translate(-1270.918 -1005.126)" fill="#0b4870"/>
          <path id="路径_285" data-name="路径 285" d="M1345.9,1466.172s-2.711.624-2.9,1.172h4.23s-.054-.41-.141-1.043c-.407-.04-.808-.12-1.215-.2A.748.748,0,0,0,1345.9,1466.172Z" transform="translate(-1337.074 -1433.724)" fill="#0e538c"/>
          <path id="路径_286" data-name="路径 286" d="M1386.1,1432.467c.26.709.466,1.253.537,1.44.407.08.808.16,1.215.2-.065-.473-.141-1.066-.228-1.708C1387.12,1432.431,1386.61,1432.453,1386.1,1432.467Z" transform="translate(-1377.836 -1401.526)" fill="#efb68f"/>
          <path id="路径_287" data-name="路径 287" d="M1306.168,1027.332c-.054-1.427-.109-13.332-.109-13.332l-5.559.424.217,1.873.705,1.427s1.112,7.736,1.871,10.188c.45,1.458,1.22,3.589,1.768,5.078.58-.013,1.166-.036,1.741-.08C1306.526,1030.747,1306.2,1028.13,1306.168,1027.332Z" transform="translate(-1296.879 -1001.782)" fill="#0b4870"/>
          <path id="路径_288" data-name="路径 288" d="M1268.5,838.419l1.356,1.115s2.061-1.115,1.844-2.051-.808-.749-1.248-.49A20.562,20.562,0,0,0,1268.5,838.419Z" transform="translate(-1266.614 -832.465)" fill="#3c8cf8"/>
          <path id="路径_289" data-name="路径 289" d="M1276.673,829.5a8.185,8.185,0,0,0-1.79,1.382,12.735,12.735,0,0,0-.976,3.834c-.109.8-.542,3.522-.488,3.7s5.993.736,6.644.29-.163-2.1-.163-3.879a10.883,10.883,0,0,0-.624-3.322c-.108-.58-.76-2.006-1.681-2.006Z" transform="translate(-1271.262 -825.508)" fill="#3c8cf8"/>
          <path id="路径_290" data-name="路径 290" d="M1308.066,756.767s-.271,2.542.976,2.675v.714a3.2,3.2,0,0,0,1.41,0l.38-3.081a9.244,9.244,0,0,0-.759-.579C1310.018,756.5,1308.066,756.767,1308.066,756.767Z" transform="translate(-1304.01 -755.763)" fill="#fbd9d4"/>
          <path id="路径_291" data-name="路径 291" d="M1301.371,742.051h-.217s.217-.713-.054-.8-1.573.669-2.224.089.054-1.026.434-1.2,1.9-.312,2.169.223c0,0,.108-.089.38.045s.434,2.631-.488,2.987l.054-.892a.539.539,0,0,0,.163-.669C1301.48,741.56,1301.371,742.051,1301.371,742.051Z" transform="translate(-1295.092 -739.976)" fill="#010609"/>
          <path id="路径_292" data-name="路径 292" d="M1374.5,881.058s.553,2.921.949,4.758c.163.758.3,4.57.407,5.529a6.844,6.844,0,0,0,.109,1.1c.108.6.163-.3.163-.4s.076.464.217,1.048c.108.45.38.847.434.151a7.919,7.919,0,0,0-.109-2.345c-.162-.4.163-3.094,0-5.342a42.325,42.325,0,0,0-.623-4.552Z" transform="translate(-1366.865 -874.712)" fill="#fbd9d4"/>
          <path id="路径_293" data-name="路径 293" d="M1365.876,846.2s-.6-1.605,0-1.917,1.9.714,2.061,1.739Z" transform="translate(-1358.458 -839.574)" fill="#3c8cf8"/>
        </g>
      </g>
      <g id="Plant" transform="translate(7.229 35.804)">
        <g id="组_360" data-name="组 360" opacity="0.5">
          <path id="路径_294" data-name="路径 294" d="M319.259,1125.506c-1.866-.114-3.449-1.714-3.46-3.059-.011-1.112,1.058-1.4,1.09-2.8.033-1.21-.754-1.481-.618-2.511a2.758,2.758,0,0,1,2.479-2.332c1.464-.005,2.462,1.638,2.549,2.95.06.895-.488,1.014-.472,1.86.033,1.719,2.18,2.213,2.148,3.5C322.947,1124.28,321.1,1125.62,319.259,1125.506Z" transform="translate(-315.798 -1114.8)" fill="#5296fe"/>
        </g>
        <g id="组_361" data-name="组 361" transform="translate(3.336 1.817)">
          <rect id="矩形_63" data-name="矩形 63" width="0.108" height="9.8" fill="#f7f7f7"/>
        </g>
        <g id="组_362" data-name="组 362" transform="translate(2.343 3.759)">
          <path id="路径_295" data-name="路径 295" d="M360.036,1185.559c-.906-.06-1.031-1.394-1.036-1.448l.108-.011c0,.011.125,1.3.938,1.35Z" transform="translate(-359 -1184.1)" fill="#f7f7f7"/>
        </g>
        <g id="组_363" data-name="组 363" transform="translate(1.632 11.541)">
          <path id="路径_296" data-name="路径 296" d="M346.323,1327.6h2.6a.445.445,0,0,1,.445.466l-.353,6.557a.437.437,0,0,1-.423.418l-1.893.076a.441.441,0,0,1-.461-.417l-.353-6.633A.437.437,0,0,1,346.323,1327.6Z" transform="translate(-345.883 -1327.6)" fill="#63a2f9"/>
        </g>
        <g id="组_364" data-name="组 364" transform="translate(2.636 7.598)">
          <path id="路径_297" data-name="路径 297" d="M365.143,1255.941c-.651-.043-.738-.987-.743-1.03l.108-.011c0,.011.087.9.64.933Z" transform="translate(-364.4 -1254.9)" fill="#f7f7f7"/>
        </g>
        <g id="组_365" data-name="组 365" transform="translate(3.336 6.215)">
          <path id="路径_298" data-name="路径 298" d="M377.305,1230.4l-.005-.109c.759-.038.873-.89.873-.9l.109.011C378.282,1229.422,378.157,1230.366,377.305,1230.4Z" transform="translate(-377.3 -1229.4)" fill="#f7f7f7"/>
        </g>
        <g id="组_366" data-name="组 366" transform="translate(3.374 8.992)">
          <path id="路径_299" data-name="路径 299" d="M378.005,1281.343l-.005-.108c.537-.027.613-.613.618-.635l.109.011C378.727,1280.616,378.635,1281.311,378.005,1281.343Z" transform="translate(-378 -1280.6)" fill="#f7f7f7"/>
        </g>
      </g>
    </g>
  </g>
</svg>
