<svg xmlns="http://www.w3.org/2000/svg" width="90" height="90" viewBox="0 0 90 90">
  <g id="组_3180" data-name="组 3180" transform="translate(-51 -121)">
    <rect id="矩形_577" data-name="矩形 577" width="90" height="90" transform="translate(51 121)" fill="none"/>
    <g id="聊天_1_" data-name="聊天(1)" transform="translate(54.418 132.55)">
      <ellipse id="椭圆_50" data-name="椭圆 50" cx="41.297" cy="3.441" rx="41.297" ry="3.441" transform="translate(0.57 59.41)" fill="#eaebef"/>
      <g id="组_370" data-name="组 370" transform="translate(0 33.266)">
        <g id="组_367" data-name="组 367" transform="translate(1.487 3.598)">
          <path id="路径_300" data-name="路径 300" d="M112.384,379.319a4.441,4.441,0,0,1,2.7-.354l.019-.056a3.206,3.206,0,0,1-1.881-2.533,21.772,21.772,0,0,1-.093-3.315,4.42,4.42,0,0,0-1.043-3.054c-1.452-1.452-4.1-.968-5.568-2.384a5.89,5.89,0,0,1-1.248-2.421,22.661,22.661,0,0,0-1.4-3.24,4.673,4.673,0,0,0-2.644-2.551,3.823,3.823,0,0,0-2.588.391,5.212,5.212,0,0,0-2.737,3.091,4.872,4.872,0,0,0,.391,3.464,6.963,6.963,0,0,0,2.365,2.626c1.695,1.173,3.855,1.788,5.084,3.464a11.45,11.45,0,0,1,1.4,3.575,5.65,5.65,0,0,0,1.937,3.24,4.366,4.366,0,0,0,2.644.67A10.415,10.415,0,0,0,112.384,379.319Z" transform="translate(-95.744 -359.323)" fill="#63a2f9"/>
          <path id="路径_301" data-name="路径 301" d="M107.348,372.709c-.8-.223-1.6-.428-2.4-.652-.13-.037-.093-.242.037-.2.726.2,1.452.391,2.179.6a16.263,16.263,0,0,1-2.29-4.171.109.109,0,0,1,.2-.074,15.7,15.7,0,0,0,2.253,4.1c.075-.708.168-1.415.242-2.123a.1.1,0,1,1,.2.037c-.093.782-.186,1.564-.261,2.346.2.279.41.54.633.819.745.931,1.546,1.825,2.365,2.719,0-.708.019-1.415.019-2.123,0-.13.2-.168.2-.019,0,.782-.019,1.583-.019,2.365.484.5.95,1.024,1.453,1.508.857.875,1.732,1.713,2.626,2.533-.149-.987-.279-1.993-.428-2.979a.1.1,0,1,1,.2-.019c.149,1.043.3,2.086.447,3.147a.069.069,0,0,1-.019.056c1.266,1.154,2.57,2.272,3.911,3.333l-.6-2.831c-.019-.13.186-.149.2-.019.2,1.024.428,2.048.633,3.054.745.577,1.49,1.155,2.272,1.713.112.074-.019.242-.13.168-.726-.521-1.434-1.061-2.141-1.62-.019.019-.037.019-.074.019l-3.5-.168c-.13,0-.112-.223.037-.2,1.1.056,2.2.112,3.3.149-1.4-1.117-2.756-2.272-4.078-3.482a.142.142,0,0,1-.093.037c-.894-.112-1.769-.2-2.663-.317a.1.1,0,1,1,.037-.2c.838.093,1.676.2,2.514.3-.894-.819-1.769-1.676-2.626-2.551-.466-.466-.912-.95-1.359-1.415h-.019a.114.114,0,0,1-.13.056c-.726-.242-1.471-.484-2.2-.708-.13-.037-.037-.242.074-.186l2.1.689c-.912-.968-1.788-1.974-2.607-3.017A8,8,0,0,1,107.348,372.709Z" transform="translate(-103.166 -366.493)" fill="#c2dafb"/>
        </g>
        <g id="组_368" data-name="组 368" transform="translate(10.957)">
          <path id="路径_302" data-name="路径 302" d="M147.345,342.272A13.438,13.438,0,0,0,148,352.625a15.817,15.817,0,0,0,7.225,7.113l.112-.223a14.381,14.381,0,0,0,.987-4.935,18.005,18.005,0,0,0-1.583-8.38,13.1,13.1,0,0,0-5.829-6.126l-.186-.075A5.385,5.385,0,0,0,147.345,342.272Z" transform="translate(-146.6 -340)" fill="#93bffb"/>
          <path id="路径_303" data-name="路径 303" d="M152.651,351.649c-.112-.075-.019-.261.093-.186,1.378.857,2.775,1.713,4.153,2.57q-.838-2.262-1.564-4.581h-.019c-.968-.689-1.918-1.378-2.886-2.067-.112-.074.037-.242.149-.149.894.633,1.769,1.266,2.663,1.9-.726-2.328-1.378-4.674-1.937-7.039a.106.106,0,1,1,.2-.056c.559,2.346,1.192,4.674,1.918,6.964.484-1.155.95-2.29,1.434-3.445.056-.13.242-.037.186.093l-1.508,3.631a.018.018,0,0,1-.019.019c.521,1.639,1.061,3.259,1.657,4.879.708-1.266,1.415-2.551,2.123-3.817.074-.112.261-.019.186.093-.726,1.3-1.434,2.588-2.16,3.892-.019.037-.037.056-.075.056.484,1.285.987,2.551,1.508,3.817l1.564-2.793c.074-.112.261-.019.186.093-.54.987-1.1,1.955-1.639,2.942.335.8.689,1.62,1.043,2.421.056.13-.149.186-.2.056-.335-.745-.67-1.508-.987-2.272a.083.083,0,0,1-.093,0l-4.171-2.439c-.112-.075-.019-.261.093-.186,1.359.8,2.719,1.583,4.078,2.384-.559-1.341-1.1-2.7-1.6-4.06C155.555,353.437,154.1,352.543,152.651,351.649Z" transform="translate(-151.31 -341.594)" fill="#cdeafb"/>
        </g>
        <g id="组_369" data-name="组 369" transform="translate(0 10.313)">
          <path id="路径_304" data-name="路径 304" d="M121.682,404.993a10.139,10.139,0,0,1,.317,5.624,1.637,1.637,0,0,0-.186-.112,9.22,9.22,0,0,1-2.141-3,5.49,5.49,0,0,1-.428-2.979c.093-.5.372-1.08.894-1.136a.994.994,0,0,1,.726.279A3.054,3.054,0,0,1,121.682,404.993Z" transform="translate(-113.332 -401.898)" fill="#d0e7fd"/>
          <path id="路径_305" data-name="路径 305" d="M143.651,425.819h0a7.608,7.608,0,0,1-4.283-5.009,1.99,1.99,0,0,1-.112-.8.77.77,0,0,1,.447-.633.833.833,0,0,1,.521-.019,2.7,2.7,0,0,1,1.4.968C142.962,421.853,143.242,423.845,143.651,425.819Z" transform="translate(-129.659 -414.866)" fill="#d0e7fd"/>
          <path id="路径_306" data-name="路径 306" d="M136.047,454.537a9.258,9.258,0,0,1-4.022,4.078,2.421,2.421,0,0,1-1.136.261,1.152,1.152,0,0,1-.968-.577,1.448,1.448,0,0,1,.261-1.378,5.258,5.258,0,0,1,2.644-1.788,15.435,15.435,0,0,1,3.091-.633A.345.345,0,0,0,136.047,454.537Z" transform="translate(-121.998 -443.491)" fill="#d0e7fd"/>
          <path id="路径_307" data-name="路径 307" d="M92.849,401.493l-.056.075a8.458,8.458,0,0,1-4.9-4.562c-.186-.5-.242-1.192.2-1.49a.926.926,0,0,1,.857-.056,2.483,2.483,0,0,1,.726.521,16.126,16.126,0,0,1,3.3,5.624A.808.808,0,0,1,92.849,401.493Z" transform="translate(-87.757 -395.382)" fill="#d0e7fd"/>
          <path id="路径_308" data-name="路径 308" d="M107.188,441.865l.019.019c-.819.689-1.508,1.508-2.328,2.2a5.012,5.012,0,0,1-2.868,1.341c-.354.019-.782-.074-.894-.41a.754.754,0,0,1,.13-.6,4.6,4.6,0,0,1,1.788-1.695,8.612,8.612,0,0,1,2.365-.782A7.161,7.161,0,0,1,107.188,441.865Z" transform="translate(-98.614 -433.184)" fill="#d0e7fd"/>
          <path id="路径_309" data-name="路径 309" d="M170.255,460.594a13.613,13.613,0,0,1,1.9-.894,23.452,23.452,0,0,1-.931,2.942,6.508,6.508,0,0,1-.764,1.527,2.29,2.29,0,0,1-.95.838,1.222,1.222,0,0,1-1.21-.112,1.315,1.315,0,0,1-.447-.95,2.726,2.726,0,0,1,.726-2.011A6.9,6.9,0,0,1,170.255,460.594Z" transform="translate(-152.929 -447.723)" fill="#d0e7fd"/>
          <path id="路径_310" data-name="路径 310" d="M164.969,420.99a1.454,1.454,0,0,1,1.359.466,7.328,7.328,0,0,1,1.881,3,24.912,24.912,0,0,1,.95,3.687h-.074a8.373,8.373,0,0,1-4.637-5.214,2.4,2.4,0,0,1-.13-1.08A1.2,1.2,0,0,1,164.969,420.99Z" transform="translate(-150.045 -416.182)" fill="#d0e7fd"/>
          <path id="路径_311" data-name="路径 311" d="M113.539,426.69A23.727,23.727,0,0,0,128.12,432.8c.13,0,.149-.2.019-.2a23.454,23.454,0,0,1-14.432-6.033C113.595,426.467,113.427,426.6,113.539,426.69Z" transform="translate(-108.708 -420.728)" fill="#d0e7fd"/>
        </g>
      </g>
      <g id="组_375" data-name="组 375" transform="translate(19.252)">
        <path id="路径_324" data-name="路径 324" d="M235.615,329.93a.393.393,0,0,1,.391.391.382.382,0,0,1-.391.391l-31.824-.13a.393.393,0,0,1-.391-.391.382.382,0,0,1,.391-.391Z" transform="translate(-199.396 -298.739)" fill="#ececec"/>
        <path id="路径_325" data-name="路径 325" d="M236.1,245.812a.393.393,0,0,1,.391.391.382.382,0,0,1-.391.391l-31.806-.112a.393.393,0,0,1-.391-.391.382.382,0,0,1,.391-.391Z" transform="translate(-199.803 -230.3)" fill="#ececec"/>
        <path id="路径_326" data-name="路径 326" d="M224.933,435.974a.393.393,0,0,1,.391.391.382.382,0,0,1-.391.391l-21.042-.074a.393.393,0,0,1-.391-.391.382.382,0,0,1,.391-.391Z" transform="translate(-199.478 -385.082)" fill="#ececec"/>
        <path id="路径_327" data-name="路径 327" d="M235.9,267.212a.393.393,0,0,1,.391.391.382.382,0,0,1-.391.391l-31.806-.112a.393.393,0,0,1-.391-.391.382.382,0,0,1,.391-.391Z" transform="translate(-199.64 -247.715)" fill="#ececec"/>
        <path id="路径_328" data-name="路径 328" d="M235.5,310.212a.393.393,0,0,1,.391.391.382.382,0,0,1-.391.391l-31.806-.112a.393.393,0,0,1-.391-.391.382.382,0,0,1,.391-.391Z" transform="translate(-199.315 -282.708)" fill="#ececec"/>
        <path id="路径_329" data-name="路径 329" d="M227.112,414.493a.393.393,0,0,1,.391.391.382.382,0,0,1-.391.391l-23.221-.093a.393.393,0,0,1-.391-.391.382.382,0,0,1,.391-.391Z" transform="translate(-199.478 -367.585)" fill="#ececec"/>
        <path id="路径_330" data-name="路径 330" d="M227.012,394.593a.393.393,0,0,1,.391.391.382.382,0,0,1-.391.391l-23.221-.093a.393.393,0,0,1-.391-.391.382.382,0,0,1,.391-.391Z" transform="translate(-199.396 -351.391)" fill="#ececec"/>
        <path id="路径_331" data-name="路径 331" d="M224.633,351.374a.393.393,0,0,1,.391.391.382.382,0,0,1-.391.391l-21.042-.074a.393.393,0,0,1-.391-.391.382.382,0,0,1,.391-.391Z" transform="translate(-199.234 -316.236)" fill="#ececec"/>
        <path id="路径_332" data-name="路径 332" d="M222.681,165.477l-.2,57.112a2.333,2.333,0,0,1-2.346,2.328l-35.9-.13a2.333,2.333,0,0,1-2.328-2.346l.2-57.112A2.333,2.333,0,0,1,184.451,163l5.437.019a5.322,5.322,0,0,0-.5,1.993l-5.735-.019-.2,56.852,37.3.13.2-56.852-5.642-.019a5.555,5.555,0,0,0-.484-1.992l5.549.019A2.353,2.353,0,0,1,222.681,165.477Z" transform="translate(-181.9 -163)" fill="#eaebee"/>
        <rect id="矩形_64" data-name="矩形 64" width="26.26" height="1.993" transform="translate(7.549 0.13)" fill="#eaebee"/>
        <path id="路径_333" data-name="路径 333" d="M236.115,204.43a.393.393,0,0,1,.391.391.382.382,0,0,1-.391.391l-31.824-.13a.393.393,0,0,1-.391-.391.382.382,0,0,1,.391-.391Z" transform="translate(-199.803 -196.609)" fill="#ececec"/>
        <path id="路径_334" data-name="路径 334" d="M235.7,288.712a.393.393,0,0,1,.391.391.382.382,0,0,1-.391.391l-31.806-.112a.393.393,0,0,1-.391-.391.382.382,0,0,1,.391-.391Z" transform="translate(-199.478 -265.211)" fill="#ececec"/>
        <path id="路径_335" data-name="路径 335" d="M235.9,225.93a.393.393,0,0,1,.391.391.382.382,0,0,1-.391.391l-31.806-.13a.393.393,0,0,1-.391-.391.382.382,0,0,1,.391-.391Z" transform="translate(-199.64 -214.106)" fill="#ececec"/>
      </g>
      <g id="组_376" data-name="组 376" transform="translate(8.394 0.471)">
        <path id="路径_336" data-name="路径 336" d="M109.5,181.31a5.763,5.763,0,0,0,2.9,4.935,20.164,20.164,0,0,0,4.395,2.886,3.728,3.728,0,0,1-1.21-2.048,5.8,5.8,0,1,0,0-11.583A6,6,0,0,0,109.5,181.31Z" transform="translate(-109.5 -160.945)" fill="#f1f4f9"/>
        <path id="路径_337" data-name="路径 337" d="M168.54,116.337l5.412,4.766-2.2-4.766h3.14a4.581,4.581,0,0,0,4.588-4.588V105.29a.694.694,0,0,0-.69-.69H165.2a4.686,4.686,0,0,0-4.7,4.7v6.192a.694.694,0,0,0,.69.69Z" transform="translate(-152.558 -104.6)" fill="#0064fb"/>
      </g>
      <g id="组_377" data-name="组 377" transform="translate(42.124 5.631)">
        <path id="路径_338" data-name="路径 338" d="M359.258,109.255a4.788,4.788,0,0,1-1.564,3.892,5.6,5.6,0,0,1-3.2,1.452h0l-3.985,1.508c-.019,0-.019,0-.019-.019l1.453-1.453v-.019h-3.222a5.327,5.327,0,0,1-5.475-4.655,4.788,4.788,0,0,1,1.564-3.892,5.5,5.5,0,0,1,3.78-1.471H353.8A5.322,5.322,0,0,1,359.258,109.255Z" transform="translate(-343.23 -104.6)" fill="#91bbfc"/>
        <path id="路径_339" data-name="路径 339" d="M422.808,190.108v1.974a2.476,2.476,0,0,1-2.477,2.477h-7.9l-3.017,2.346.987-2.346h-.093a1.709,1.709,0,0,1-1.713-1.713v-2.607a2.448,2.448,0,0,1,2.439-2.439h9.46A2.3,2.3,0,0,1,422.808,190.108Z" transform="translate(-396.427 -172.306)" fill="#f1f4f9"/>
      </g>
      <g id="组_416" data-name="组 416" transform="translate(22.566 28.657)">
        <path id="路径_370" data-name="路径 370" d="M222.608,237.355l1.318,4.6a.615.615,0,0,1-.534.784h0a.809.809,0,0,1-.806-.4l-1.7-4.432a.829.829,0,0,1,.534-1.1h0A.944.944,0,0,1,222.608,237.355Z" transform="translate(-211.726 -231.022)" fill="#fbd9d4"/>
        <g id="组_399" data-name="组 399" transform="translate(10.84 10.422)">
          <path id="路径_371" data-name="路径 371" d="M238.212,280.542l.566,4.715-1-.044-.958-4.508a.75.75,0,0,1,.588-.849h0A.768.768,0,0,1,238.212,280.542Z" transform="translate(-236.808 -279.851)" fill="#fbd9d4"/>
          <path id="路径_372" data-name="路径 372" d="M244.832,326.5s1.394,1.622-.022,2.483a.245.245,0,0,1-.294-.033l-.011-.011a.207.207,0,0,1-.011-.294.763.763,0,0,0-.065-1.154s-.229.076-.152.512a.181.181,0,0,1-.2.207h0a.2.2,0,0,1-.185-.131,1.307,1.307,0,0,1,.163-1.416Z" transform="translate(-243.004 -321.42)" fill="#fbd9d4"/>
        </g>
        <g id="组_408" data-name="组 408" transform="translate(0.54 11.863)">
          <g id="组_403" data-name="组 403" transform="translate(0 18)">
            <g id="组_402" data-name="组 402">
              <g id="组_401" data-name="组 401" transform="translate(0 3.789)">
                <path id="路径_373" data-name="路径 373" d="M143.429,498.521l-1.056.523a.271.271,0,0,0-.142.3c.033.1.12.185.348.185.523.011,2.82-.348,2.82-.348v.24l1.067-.12s.076-1.22-.25-1.4Z" transform="translate(-142.223 -497.149)" fill="#01384f"/>
                <path id="路径_374" data-name="路径 374" d="M155,491.142l-1.7,1.219s.185.468.98.153,1.808-.784,1.808-.784l-.142-.729Z" transform="translate(-152.094 -491)" fill="#01384f"/>
              </g>
              <path id="路径_375" data-name="路径 375" d="M168.485,460.73l.7-4.53-1.688.163-.294,4.214Z" transform="translate(-164.48 -456.2)" fill="#facbb6"/>
            </g>
          </g>
          <g id="组_406" data-name="组 406" transform="translate(9.765 18)">
            <g id="组_405" data-name="组 405">
              <g id="组_404" data-name="组 404" transform="translate(0.45 3.789)">
                <path id="路径_376" data-name="路径 376" d="M239.075,498.521l1.056.523a.271.271,0,0,1,.142.3c-.033.1-.12.163-.348.174-.523.011-2.82-.338-2.82-.338v.24l-1.067-.12s-.076-1.219.25-1.4Z" transform="translate(-236.029 -497.149)" fill="#01384f"/>
                <path id="路径_377" data-name="路径 377" d="M239.589,491.142l1.7,1.219s-.185.468-.98.153-1.808-.784-1.808-.784l.142-.729Z" transform="translate(-238.231 -491)" fill="#01384f"/>
              </g>
              <path id="路径_378" data-name="路径 378" d="M232.608,460.73l-.708-4.53,1.7.163.294,4.214Z" transform="translate(-231.9 -456.2)" fill="#facbb6"/>
            </g>
          </g>
          <g id="组_407" data-name="组 407" transform="translate(1.674)">
            <path id="路径_379" data-name="路径 379" d="M160.864,290.9s-1.459.468-2.526,5.4-.383,12.749-.579,16.408h1.556l3.3-16.168,2.745,16.168h1.582s.312-20.154-2.726-21.809Z" transform="translate(-156.792 -290.9)" fill="#01384f"/>
            <path id="路径_380" data-name="路径 380" d="M211.1,342.7" transform="translate(-205.274 -337.059)" fill="#01384f" stroke="#09090b" stroke-miterlimit="10" stroke-width="0.77"/>
            <path id="路径_381" data-name="路径 381" d="M194,467" transform="translate(-190.036 -447.824)" fill="#01384f" stroke="#09090b" stroke-miterlimit="10" stroke-width="0.77"/>
            <path id="路径_382" data-name="路径 382" d="M157.6,467" transform="translate(-157.6 -447.824)" fill="#01384f" stroke="#09090b" stroke-miterlimit="10" stroke-width="0.77"/>
            <path id="路径_383" data-name="路径 383" d="M255.3,467" transform="translate(-244.661 -447.824)" fill="#01384f" stroke="#09090b" stroke-miterlimit="10" stroke-width="0.77"/>
            <path id="路径_384" data-name="路径 384" d="M219.4,467" transform="translate(-212.67 -447.824)" fill="#01384f" stroke="#09090b" stroke-miterlimit="10" stroke-width="0.77"/>
          </g>
        </g>
        <g id="组_413" data-name="组 413" transform="translate(0 5.874)">
          <g id="组_409" data-name="组 409" transform="translate(4.683)">
            <path id="路径_385" data-name="路径 385" d="M180.395,241.4a3.482,3.482,0,0,0,.588,3.027l.958-.991-.392-1.84Z" transform="translate(-180.272 -240.801)" fill="#fbd9d4"/>
            <path id="路径_386" data-name="路径 386" d="M182.587,236.183l-1.187.316a3.58,3.58,0,0,1,.588,3.027l.893,1.873,3.376.011.719-2.232a2.326,2.326,0,0,0,.044-1.829l-.773-1.416-.74-.033Z" transform="translate(-181.277 -235.9)" fill="#3c8cf8"/>
            <path id="路径_387" data-name="路径 387" d="M195,286.3v.5s3.408.076,3.354,0,.022-.49.022-.49Z" transform="translate(-193.396 -280.812)" fill="#fbd9d4"/>
          </g>
          <g id="组_412" data-name="组 412" transform="translate(0 0.599)">
            <g id="组_411" data-name="组 411">
              <path id="路径_388" data-name="路径 388" d="M142.068,241.4a2.669,2.669,0,0,0-2.189,1.622l-2.461,3.038a1.052,1.052,0,0,0,.73,1.59h0a.682.682,0,0,0,.806-.414l3.452-3.528Z" transform="translate(-137.262 -241.4)" fill="#fbd9d4"/>
              <g id="组_410" data-name="组 410" transform="translate(0.003 4.217)">
                <path id="路径_389" data-name="路径 389" d="M142.433,284.356l-4.443-2.243a1.027,1.027,0,0,1-.675-1.187h0a.93.93,0,0,1,1.4-.664l4.236,2.994Z" transform="translate(-137.292 -280.123)" fill="#fbd9d4"/>
                <path id="路径_390" data-name="路径 390" d="M179.806,306.329l.849-.229-.839,1.644-.817-.512Z" transform="translate(-174.458 -303.271)" fill="#fbd9d4"/>
              </g>
            </g>
            <path id="路径_391" data-name="路径 391" d="M184.2,325.6" transform="translate(-179.089 -316.431)" fill="#fbd9d4" stroke="#09090b" stroke-miterlimit="10" stroke-width="0.77"/>
          </g>
        </g>
        <g id="组_415" data-name="组 415" transform="translate(4.458)">
          <path id="路径_392" data-name="路径 392" d="M182.066,182.2a1.631,1.631,0,0,1,1.5,1.579c.1,1.132-.12,1.633.74,2.537a8.066,8.066,0,0,1-6.109.392,5.14,5.14,0,0,0,.653-2.276,2.067,2.067,0,0,1,.871-2.014A2.264,2.264,0,0,1,182.066,182.2Z" transform="translate(-178.2 -181.959)" fill="#01384f"/>
          <path id="路径_393" data-name="路径 393" d="M217.9,204.032a.643.643,0,1,0,.653-.632A.658.658,0,0,0,217.9,204.032Z" transform="translate(-213.577 -201.065)" fill="#f5d2cd"/>
          <path id="路径_394" data-name="路径 394" d="M200.157,219.2l-.011,1.383c0,.436-.272.37-.7.37h0c-.359-.011-.806.1-.849-.261l.109-2.091Z" transform="translate(-196.379 -214.61)" fill="#fbd9d4"/>
          <path id="路径_395" data-name="路径 395" d="M201.75,222.143,200.4,221l1.361.207Z" transform="translate(-197.983 -216.749)" fill="#f5d5d1"/>
          <path id="路径_396" data-name="路径 396" d="M197.529,190.12h0a1.554,1.554,0,0,0,1.448-1.448l-.033-1.448a1.543,1.543,0,0,0-1.525-1.525h0a1.677,1.677,0,0,0-1.72,1.525l.044,1.263A1.7,1.7,0,0,0,197.529,190.12Z" transform="translate(-193.794 -185.292)" fill="#fbd9d4"/>
          <path id="路径_397" data-name="路径 397" d="M192.843,234.7l1,.131s-.436,1.416-3.245.338l.991-.3Z" transform="translate(-189.25 -228.957)" fill="#fbd9d4"/>
          <path id="路径_398" data-name="路径 398" d="M194.615,184.222s.719.3.534.795a4.144,4.144,0,0,1-2.744,1.666s-.686-1.078,0-1.742a2.5,2.5,0,0,1,1.22-.74Z" transform="translate(-190.586 -183.956)" fill="#01384f"/>
          <path id="路径_399" data-name="路径 399" d="M216.579,187.3s-1.067-.74-1.034-1.394c0,0-.261-.25.348-.033A1.188,1.188,0,0,1,216.579,187.3Z" transform="translate(-211.428 -185.366)" fill="#01384f"/>
          <path id="路径_400" data-name="路径 400" d="M197.664,201.2c0,.033-.381,1.154-.381,1.154L197,201.32Z" transform="translate(-194.953 -199.105)" fill="#01384f"/>
          <g id="组_414" data-name="组 414" transform="translate(1.187 2.455)">
            <path id="路径_401" data-name="路径 401" d="M189.1,205.132a.643.643,0,1,0,.653-.632A.651.651,0,0,0,189.1,205.132Z" transform="translate(-189.1 -204.5)" fill="#fbd9d4"/>
            <path id="路径_402" data-name="路径 402" d="M193,208.5" transform="translate(-192.575 -208.064)" fill="none" stroke="#492a13" stroke-linecap="round" stroke-linejoin="round" stroke-miterlimit="10" stroke-width="0.794"/>
            <path id="路径_403" data-name="路径 403" d="M197.1,212.2" transform="translate(-196.229 -211.362)" fill="none" stroke="#492a13" stroke-linecap="round" stroke-linejoin="round" stroke-miterlimit="10" stroke-width="0.794"/>
          </g>
        </g>
      </g>
      <g id="组_374" data-name="组 374" transform="translate(52.897 34.663)">
        <g id="组_371" data-name="组 371" transform="translate(4.863 19.006)">
          <path id="路径_312" data-name="路径 312" d="M408.923,449.442a14.186,14.186,0,0,1-10.409,3.408,16.62,16.62,0,0,1-9.814-4.32l.168-.186a14.512,14.512,0,0,1,4.469-2.886,18.839,18.839,0,0,1,8.845-1.713,13.8,13.8,0,0,1,8.287,3.315l.149.13A5.918,5.918,0,0,1,408.923,449.442Z" transform="translate(-388.7 -443.708)" fill="#63a2f9"/>
          <path id="路径_313" data-name="路径 313" d="M402.55,456.115c.112.093.261-.074.149-.168l-4.134-3.073c1.713-.037,3.408-.13,5.1-.261l.019.019c1.043.67,2.1,1.359,3.147,2.03.112.075.223-.13.093-.2-.968-.633-1.937-1.248-2.905-1.881,2.57-.186,5.121-.484,7.672-.857a.112.112,0,1,0-.019-.223c-2.514.372-5.046.652-7.579.838.931-.913,1.881-1.825,2.812-2.737.112-.093-.075-.242-.168-.149-.987.968-1.974,1.937-2.979,2.9a.018.018,0,0,1-.019.019c-1.806.13-3.613.223-5.438.279.968-1.192,1.955-2.384,2.924-3.575.093-.112-.074-.261-.168-.149-.987,1.21-1.993,2.421-2.979,3.631-.019.037-.037.056-.019.093-1.453.037-2.886.037-4.339.019l2.123-2.626c.093-.112-.074-.261-.168-.149-.745.913-1.49,1.844-2.235,2.756-.931-.019-1.862-.037-2.793-.074-.149,0-.13.223.019.223.875.037,1.75.074,2.607.093,0,.037,0,.075.037.093l4.022,3.147c.112.093.261-.074.149-.168-1.3-1.024-2.626-2.048-3.929-3.073,1.546.019,3.073.019,4.618-.019C399.663,453.955,401.116,455.035,402.55,456.115Z" transform="translate(-390.204 -447.923)" fill="#cfe0f9"/>
        </g>
        <g id="组_372" data-name="组 372" transform="translate(4.64 1.521)">
          <path id="路径_314" data-name="路径 314" d="M390.386,371.425a4.653,4.653,0,0,0-2.868-.261l-.019-.056a3.343,3.343,0,0,0,1.881-2.756,22,22,0,0,0-.037-3.5,4.7,4.7,0,0,1,.968-3.277c1.471-1.583,4.283-1.192,5.773-2.756a6.252,6.252,0,0,0,1.229-2.607,25.349,25.349,0,0,1,1.341-3.482,4.866,4.866,0,0,1,2.7-2.793,3.941,3.941,0,0,1,2.756.316,5.45,5.45,0,0,1,3.017,3.147,5.2,5.2,0,0,1-.261,3.669,7.427,7.427,0,0,1-2.384,2.868c-1.75,1.3-4,2.048-5.214,3.873a12.333,12.333,0,0,0-1.322,3.836,6.078,6.078,0,0,1-1.9,3.5,4.416,4.416,0,0,1-2.775.8A9.072,9.072,0,0,1,390.386,371.425Z" transform="translate(-387.5 -349.806)" fill="#93bffb"/>
          <path id="路径_315" data-name="路径 315" d="M408.173,363.481l2.514-.782c.13-.037.093-.261-.037-.223-.763.242-1.527.465-2.272.708a17.029,17.029,0,0,0,2.253-4.506c.037-.13-.168-.2-.2-.074a16.864,16.864,0,0,1-2.2,4.413c-.112-.745-.223-1.49-.354-2.234-.019-.149-.242-.093-.223.037l.391,2.458c-.2.3-.41.6-.633.894-.764,1.024-1.546,1.993-2.384,2.961l-.112-2.235c0-.149-.223-.168-.223-.019.037.838.075,1.676.13,2.5-.484.559-.968,1.117-1.453,1.657-.857.95-1.75,1.881-2.663,2.793.112-1.061.224-2.1.335-3.166a.112.112,0,1,0-.223-.019c-.112,1.117-.223,2.216-.354,3.333a.112.112,0,0,0,.019.075c-1.285,1.266-2.607,2.5-3.985,3.687l.5-3.017c.019-.149-.2-.149-.223-.019-.186,1.08-.372,2.179-.54,3.259-.763.652-1.527,1.285-2.309,1.9-.112.093.037.261.149.168.745-.577,1.471-1.192,2.2-1.788.019.019.037.019.074.019,1.229-.112,2.458-.223,3.687-.316.149-.019.093-.223-.037-.223-1.155.093-2.309.2-3.464.3,1.434-1.229,2.83-2.514,4.171-3.836a.142.142,0,0,0,.093.037l2.793-.447c.149-.019.093-.242-.037-.223-.875.149-1.769.279-2.644.428.912-.912,1.806-1.844,2.663-2.793.465-.521.931-1.024,1.378-1.564h.019a.114.114,0,0,0,.13.056l2.29-.838c.13-.056.037-.242-.093-.2l-2.2.8c.912-1.061,1.806-2.16,2.626-3.3C407.856,363.928,408.024,363.7,408.173,363.481Z" transform="translate(-392.698 -356.909)" fill="#cdeafb"/>
        </g>
        <g id="组_373" data-name="组 373" transform="translate(0 0)">
          <path id="路径_316" data-name="路径 316" d="M410.71,379.1a10.7,10.7,0,0,1-5.81,1.285c.019-.074.056-.13.074-.2a9.711,9.711,0,0,1,2.775-2.737,5.786,5.786,0,0,1,3.054-.95c.54,0,1.192.2,1.322.745a1.028,1.028,0,0,1-.168.8A3.01,3.01,0,0,1,410.71,379.1Z" transform="translate(-397.02 -370.006)" fill="#d0e7fd"/>
          <path id="路径_317" data-name="路径 317" d="M397.019,405.023H397a8.067,8.067,0,0,1,4.525-5.289,1.892,1.892,0,0,1,.819-.242.832.832,0,0,1,.745.354,1.115,1.115,0,0,1,.112.559,2.772,2.772,0,0,1-.782,1.62C401.06,403.626,399.011,404.259,397.019,405.023Z" transform="translate(-390.591 -388.718)" fill="#d0e7fd"/>
          <path id="路径_318" data-name="路径 318" d="M373.057,403.664a9.624,9.624,0,0,1-4.916-3.519,2.632,2.632,0,0,1-.466-1.136,1.225,1.225,0,0,1,.447-1.1,1.484,1.484,0,0,1,1.471.037,5.674,5.674,0,0,1,2.309,2.458,16.147,16.147,0,0,1,1.173,3.128A.318.318,0,0,1,373.057,403.664Z" transform="translate(-366.723 -387.285)" fill="#d0e7fd"/>
          <path id="路径_319" data-name="路径 319" d="M415.975,347.853l-.074-.037a8.978,8.978,0,0,1,3.929-5.884c.5-.279,1.192-.466,1.6-.037a.958.958,0,0,1,.2.894,2.387,2.387,0,0,1-.428.838,17.11,17.11,0,0,1-5.307,4.395A.236.236,0,0,1,415.975,347.853Z" transform="translate(-405.972 -341.641)" fill="#d0e7fd"/>
          <path id="路径_320" data-name="路径 320" d="M384.824,371.278l-.019.019c-.857-.726-1.825-1.322-2.682-2.048a5.307,5.307,0,0,1-1.881-2.756c-.074-.372-.056-.838.279-1.006a.881.881,0,0,1,.652.037,4.794,4.794,0,0,1,2.067,1.583,9.882,9.882,0,0,1,1.21,2.328A7.715,7.715,0,0,1,384.824,371.278Z" transform="translate(-376.925 -361.007)" fill="#d0e7fd"/>
          <path id="路径_321" data-name="路径 321" d="M367.558,440.67a13.712,13.712,0,0,1,1.248,1.825,26.913,26.913,0,0,1-3.221-.484,7.8,7.8,0,0,1-1.732-.54,2.473,2.473,0,0,1-1.043-.857,1.275,1.275,0,0,1-.093-1.285,1.4,1.4,0,0,1,.912-.633,3.005,3.005,0,0,1,2.216.41A7.207,7.207,0,0,1,367.558,440.67Z" transform="translate(-362.583 -420.566)" fill="#d0e7fd"/>
          <path id="路径_322" data-name="路径 322" d="M402.86,426.7a1.523,1.523,0,0,1-.261,1.49,7.835,7.835,0,0,1-2.812,2.477,28.378,28.378,0,0,1-3.687,1.62v-.075a8.876,8.876,0,0,1,4.655-5.7,2.654,2.654,0,0,1,1.117-.317A1.139,1.139,0,0,1,402.86,426.7Z" transform="translate(-389.859 -410.454)" fill="#d0e7fd"/>
          <path id="路径_323" data-name="路径 323" d="M399.141,373.18a25.01,25.01,0,0,0-3.929,16.238.112.112,0,1,0,.223-.019,24.623,24.623,0,0,1,3.892-16.07C399.383,373.2,399.216,373.05,399.141,373.18Z" transform="translate(-389.026 -367.266)" fill="#cbe2f9"/>
        </g>
      </g>
      <g id="组_398" data-name="组 398" transform="translate(43.588 26.125)">
        <g id="组_397" data-name="组 397">
          <g id="组_385" data-name="组 385" transform="translate(0 14.994)">
            <g id="组_380" data-name="组 380" transform="translate(0 0.392)">
              <g id="组_379" data-name="组 379" transform="translate(0 16.65)">
                <path id="路径_340" data-name="路径 340" d="M306.976,463.508l.283-4.508,1.96.653-.643,4.606-1.677-.588Z" transform="translate(-303.078 -459)" fill="#f6b7a0"/>
                <g id="组_378" data-name="组 378" transform="translate(0 3.724)">
                  <path id="路径_341" data-name="路径 341" d="M278.215,493.886s-1.525.381-2.058-.686l-3.757,1.3,6.033.915Z" transform="translate(-272.335 -493.2)" fill="#01384f"/>
                  <path id="路径_342" data-name="路径 342" d="M271.8,505.723l6.033.915.076-.523-6.033-.915Z" transform="translate(-271.8 -503.893)" fill="#c6c6c5"/>
                  <path id="路径_343" data-name="路径 343" d="M302.534,494.73l-.033-.033a2.291,2.291,0,0,0-.381-.523.1.1,0,0,1-.011-.141.093.093,0,0,1,.142,0,2.226,2.226,0,0,1,.425.577.1.1,0,0,1-.044.131A.105.105,0,0,1,302.534,494.73Z" transform="translate(-298.788 -493.913)" fill="#fff"/>
                  <path id="路径_344" data-name="路径 344" d="M297.834,496.33l-.033-.033a2.29,2.29,0,0,0-.381-.523.1.1,0,0,1-.011-.141.093.093,0,0,1,.142,0,2.223,2.223,0,0,1,.425.577.1.1,0,0,1-.044.131A.154.154,0,0,1,297.834,496.33Z" transform="translate(-294.6 -495.339)" fill="#fff"/>
                  <path id="路径_345" data-name="路径 345" d="M293.134,497.83l-.033-.033a2.289,2.289,0,0,0-.381-.523.1.1,0,0,1-.011-.142.093.093,0,0,1,.141,0,2.231,2.231,0,0,1,.425.577.1.1,0,0,1-.044.131A.106.106,0,0,1,293.134,497.83Z" transform="translate(-290.412 -496.675)" fill="#fff"/>
                </g>
              </g>
              <path id="路径_346" data-name="路径 346" d="M305.7,306.1l-.1.294a30,30,0,0,0-2.559,5.532l-1.688,4.835a6.89,6.89,0,0,0-.338,1.546l.234,7.513,1.792.383,1.546-7.721,3.942-7.655-.207-4.475Z" transform="translate(-297.282 -306.1)" fill="#01384f"/>
            </g>
            <g id="组_384" data-name="组 384" transform="translate(8.515)">
              <g id="组_382" data-name="组 382" transform="translate(3.985 15.844)">
                <path id="路径_347" data-name="路径 347" d="M392.117,452.476,389.7,448.7l1.938-.7,2.189,4.073-1.677.577Z" transform="translate(-389.362 -448)" fill="#f6b7a0"/>
                <g id="组_381" data-name="组 381" transform="translate(0 3.158)">
                  <path id="路径_348" data-name="路径 348" d="M390.869,477s-.991,1.252-2.036.741l-2.232,3.376,5.347-3.027Z" transform="translate(-386.6 -477)" fill="#01384f"/>
                  <path id="路径_349" data-name="路径 349" d="M386.95,490.4l5.336-3.038-.25-.457-5.336,3.027Z" transform="translate(-386.689 -485.822)" fill="#c6c6c5"/>
                  <path id="路径_350" data-name="路径 350" d="M404.662,487.067a.1.1,0,0,1-.055-.011,1.676,1.676,0,0,0-.621-.174.1.1,0,0,1-.087-.109.1.1,0,0,1,.109-.087,2.131,2.131,0,0,1,.686.2.1.1,0,0,1,.043.131A.082.082,0,0,1,404.662,487.067Z" transform="translate(-402.016 -485.63)" fill="#fff"/>
                  <path id="路径_351" data-name="路径 351" d="M401.862,491.167a.1.1,0,0,1-.054-.011,1.679,1.679,0,0,0-.621-.174.1.1,0,0,1-.087-.109.1.1,0,0,1,.109-.087,2.129,2.129,0,0,1,.686.2.1.1,0,0,1,.044.131A.082.082,0,0,1,401.862,491.167Z" transform="translate(-399.521 -489.283)" fill="#fff"/>
                  <path id="路径_352" data-name="路径 352" d="M399.062,495.367a.1.1,0,0,1-.054-.011,1.677,1.677,0,0,0-.621-.174.1.1,0,0,1-.087-.109.1.1,0,0,1,.109-.087,2.133,2.133,0,0,1,.686.2.1.1,0,0,1,.044.131A.082.082,0,0,1,399.062,495.367Z" transform="translate(-397.026 -493.026)" fill="#fff"/>
                </g>
              </g>
              <g id="组_383" data-name="组 383">
                <path id="路径_353" data-name="路径 353" d="M358.2,307.139l.741,7.209a3.056,3.056,0,0,0,.272.98l4.163,6.442,1.684-.765-2.438-6.733.12-5.205s.294-4.759-1.231-6.566l-2.886.468Z" transform="translate(-357.307 -302.5)" fill="#01384f"/>
                <path id="路径_354" data-name="路径 354" d="M350,340.1" transform="translate(-350 -336.006)" fill="none" stroke="#b5afc7" stroke-miterlimit="10" stroke-width="0.716"/>
                <path id="路径_355" data-name="路径 355" d="M361.4,376.1" transform="translate(-360.159 -368.085)" fill="none" stroke="#b5afc7" stroke-miterlimit="10" stroke-width="0.716"/>
              </g>
            </g>
          </g>
          <g id="组_394" data-name="组 394" transform="translate(0.324 6.729)">
            <g id="组_389" data-name="组 389" transform="translate(0 1.083)">
              <g id="组_387" data-name="组 387" transform="translate(0 0.641)">
                <g id="组_386" data-name="组 386">
                  <path id="路径_356" data-name="路径 356" d="M290.953,266.1l1.416,1.361-.566.936-1.5-1.622Z" transform="translate(-288.609 -263.523)" fill="#fbd9d4"/>
                  <path id="路径_357" data-name="路径 357" d="M277.119,245.01l-.011-1.731a.2.2,0,0,0-.152-.185h0a.178.178,0,0,0-.218.131l-.131.468-1.111-1.2a.206.206,0,0,0-.327.044l-.37.686a.187.187,0,0,0,0,.185c.2.4.991,1.982,1.666,2.276Z" transform="translate(-274.775 -242.433)" fill="#fbd9d4"/>
                </g>
              </g>
              <g id="组_388" data-name="组 388" transform="translate(1.734)">
                <path id="路径_358" data-name="路径 358" d="M297.691,236.908s.37.849-1.426,5.161c0,0-.98,1.8-1.416,1.851-.7.087-2.657-.958-4.149-3.1l1.122-.838,2.2,1.274,1.3-3.332C295.328,237.91,296.09,235.688,297.691,236.908Z" transform="translate(-290.7 -236.542)" fill="#5296fe"/>
              </g>
            </g>
            <g id="组_390" data-name="组 390" transform="translate(6.892)">
              <path id="路径_359" data-name="路径 359" d="M341.729,226.6l2.94,1.307a.521.521,0,0,1,.3.534l-.74,7.677a13.365,13.365,0,0,1-5.619.338l-.544-7.895a.772.772,0,0,1,.218-.621l1.884-1.318Z" transform="translate(-338.067 -226.6)" fill="#3c8cf8"/>
            </g>
            <g id="组_393" data-name="组 393" transform="translate(7.865 1.372)">
              <g id="组_391" data-name="组 391" transform="translate(0 4.854)">
                <path id="路径_360" data-name="路径 360" d="M370.5,295.144l1.96-.044.261,1.067-2.211-.1Z" transform="translate(-367.941 -293.867)" fill="#fbd9d4"/>
                <path id="路径_361" data-name="路径 361" d="M349.563,285.056l-1.23-1.22a.17.17,0,0,0-.229-.022h0a.191.191,0,0,0-.065.25l.24.425-1.067.131a.2.2,0,0,0-.2.261l.229.751a.2.2,0,0,0,.131.131,3.844,3.844,0,0,0,2.221.229Z" transform="translate(-347.004 -283.78)" fill="#fbd9d4"/>
              </g>
              <g id="组_392" data-name="组 392" transform="translate(3.103)">
                <path id="路径_362" data-name="路径 362" d="M378.146,239.2s.849.37,2.374,4.606c0,0,.577,1.633.294,1.938-.457.512-2.744,1.3-5.281.708l-.033-1.383,2.809-.425-1.252-3.212C377.046,241.421,376.132,239.342,378.146,239.2Z" transform="translate(-375.5 -239.2)" fill="#5296fe"/>
              </g>
            </g>
          </g>
          <g id="组_396" data-name="组 396" transform="translate(7.579)">
            <path id="路径_363" data-name="路径 363" d="M343.693,195.033a.649.649,0,1,1-.675-.642A.651.651,0,0,1,343.693,195.033Z" transform="translate(-342.289 -191.168)" fill="#f6dcd8"/>
            <path id="路径_364" data-name="路径 364" d="M356.736,208.84l-.044,1.22a.784.784,0,0,0,.849.882h0c.457.011,1.122-.3,1.111-.806V208.1Z" transform="translate(-355.026 -203.385)" fill="#fbd9d4"/>
            <path id="路径_365" data-name="路径 365" d="M356.8,211.17a2.257,2.257,0,0,0,2.036-1.5c.142-.457-2,.272-2,.272Z" transform="translate(-355.123 -204.647)" fill="#f3cec9"/>
            <path id="路径_366" data-name="路径 366" d="M347.854,178.295h0a1.693,1.693,0,0,1-1.655-1.568V175.1a1.781,1.781,0,0,1,1.677-1.819h0a1.913,1.913,0,0,1,1.982,1.721l-.011,1.263A2.036,2.036,0,0,1,347.854,178.295Z" transform="translate(-345.677 -172.36)" fill="#fbd9d4"/>
            <path id="路径_367" data-name="路径 367" d="M342.427,164.9c.359-.131,1.263-.261,1.427.544.893-.022,2.319.054,2.417.838a3.423,3.423,0,0,1-.708,2.232l-.229.109s-.566-.327-.348-1.677c0,0-2.08.4-3.027-.163S341.349,165.3,342.427,164.9Z" transform="translate(-341.404 -164.804)" fill="#01384f"/>
            <g id="组_395" data-name="组 395" transform="translate(3.702 3.266)">
              <path id="路径_368" data-name="路径 368" d="M376.693,195.44a.649.649,0,1,1-.675-.642A.651.651,0,0,1,376.693,195.44Z" transform="translate(-375.397 -194.797)" fill="#fbd9d4"/>
            </g>
            <path id="路径_369" data-name="路径 369" d="M353.263,225.542l-.479.338s-.294.817,1.078.915a1.711,1.711,0,0,0,1.786-.893l-.98-.5Z" transform="translate(-351.521 -218.801)" fill="#fbd9d4"/>
          </g>
        </g>
      </g>
    </g>
  </g>
</svg>
