<?xml version="1.0" standalone="no"?><!DOCTYPE svg PUBLIC "-//W3C//DTD SVG 1.1//EN" "http://www.w3.org/Graphics/SVG/1.1/DTD/svg11.dtd"><svg t="1635253253049" class="icon" viewBox="0 0 1024 1024" version="1.1" xmlns="http://www.w3.org/2000/svg" p-id="2192" xmlns:xlink="http://www.w3.org/1999/xlink" width="200" height="200"><defs><style type="text/css"></style></defs><path d="M856.832 608.256a29.44 29.44 0 0 0-28.736 28.736v153.216a9.024 9.024 0 0 1-9.6 9.6H205.568a9.024 9.024 0 0 1-9.6-9.6V636.992a28.8 28.8 0 0 0-57.6 0v153.216a67.84 67.84 0 0 0 67.072 67.008h612.928a67.84 67.84 0 0 0 67.072-67.008V636.992a29.44 29.44 0 0 0-28.736-28.736z" fill="#000B13" p-id="2193"></path><path d="M341.696 409.024l141.76-141.76v408a28.8 28.8 0 1 0 57.6 0v-409.6l141.76 141.76a32.832 32.832 0 0 0 42.112 0 27.776 27.776 0 0 0 0-40.256L533.376 175.616a27.776 27.776 0 0 0-40.256 0L301.568 367.168a27.776 27.776 0 0 0 0 40.256 29.504 29.504 0 0 0 40.128 1.6z" fill="#000B13" p-id="2194"></path></svg>