<?xml version="1.0" standalone="no"?><!DOCTYPE svg PUBLIC "-//W3C//DTD SVG 1.1//EN" "http://www.w3.org/Graphics/SVG/1.1/DTD/svg11.dtd"><svg t="1636086066207" class="icon" viewBox="0 0 1024 1024" version="1.1" xmlns="http://www.w3.org/2000/svg" p-id="2406" xmlns:xlink="http://www.w3.org/1999/xlink" width="200" height="200"><defs><style type="text/css"></style></defs><path d="M898.624 120.128a75.968 75.968 0 0 0-49.024-17.024H225.472a75.52 75.52 0 0 0-74.56 74.56 85.376 85.376 0 0 0 17.024 49.024l256 302.528v251.392a28.544 28.544 0 0 0 17.024 27.712l161.92 80.96a30.784 30.784 0 0 0 14.912 4.288 50.112 50.112 0 0 0 17.024-4.288 36.416 36.416 0 0 0 14.912-27.712V527.04l255.68-302.528a70.4 70.4 0 0 0 17.024-53.248 56.192 56.192 0 0 0-23.424-51.2z m-38.4 64L596.032 495.232a37.824 37.824 0 0 0-8.512 21.312v291.904l-97.984-49.024v-243.2a27.328 27.328 0 0 0-8.512-21.312L216.832 183.808c0-2.112-2.112-4.288-2.112-6.4a10.048 10.048 0 0 1 10.624-10.624h624.256a7.808 7.808 0 0 1 6.4 2.112 30.656 30.656 0 0 1 4.288 6.4 6.4 6.4 0 0 1 0 8.512z" fill="#3A4566" p-id="2407"></path></svg>