<?xml version="1.0" encoding="utf-8"?>
<!-- Generator: Adobe Illustrator 24.0.1, SVG Export Plug-In . SVG Version: 6.00 Build 0)  -->
<svg version="1.1" id="图层_1" xmlns="http://www.w3.org/2000/svg" xmlns:xlink="http://www.w3.org/1999/xlink" x="0px" y="0px"
	 viewBox="0 0 800 800" style="enable-background:new 0 0 800 800;" xml:space="preserve">
<style type="text/css">
	.st0{fill:url(#SVGID_1_);}
	.st1{fill:url(#SVGID_2_);}
	.st2{fill:url(#SVGID_3_);}
	.st3{fill:url(#SVGID_4_);}
	.st4{opacity:0.98;fill:url(#SVGID_5_);enable-background:new    ;}
	.st5{fill-rule:evenodd;clip-rule:evenodd;fill:url(#形状结合_1_);}
	.st6{fill-rule:evenodd;clip-rule:evenodd;fill:url(#形状结合备份_1_);}
	.st7{fill-rule:evenodd;clip-rule:evenodd;fill:#C2C6CC;}
	.st8{fill-rule:evenodd;clip-rule:evenodd;fill:url(#Fill-1_3_);}
	.st9{fill-rule:evenodd;clip-rule:evenodd;fill:#C2C6CB;}
	.st10{fill-rule:evenodd;clip-rule:evenodd;fill:url(#Fill-1_4_);}
	.st11{fill-rule:evenodd;clip-rule:evenodd;fill:url(#Fill-1_5_);}
	.st12{fill:url(#矩形_1_);}
	.st13{fill:url(#矩形-2_1_);}
	.st14{fill:url(#矩形-3_1_);}
	.st15{opacity:0.98;fill-rule:evenodd;clip-rule:evenodd;fill:url(#矩形-4_1_);enable-background:new    ;}
	.st16{fill:url(#矩形-5_1_);}
	.st17{opacity:0.98;fill-rule:evenodd;clip-rule:evenodd;fill:url(#矩形-6_1_);enable-background:new    ;}
	.st18{fill:url(#矩形-7_1_);}
	.st19{fill:url(#矩形-8_1_);}
	.st20{fill:none;stroke:#FFDFE0;stroke-width:0.5;}
	.st21{opacity:0.604;fill:none;stroke:#FFECED;stroke-width:0.5;enable-background:new    ;}
	.st22{fill:none;stroke:#FFFFFF;stroke-width:0.5;stroke-linejoin:round;}
</style>
<linearGradient id="SVGID_1_" gradientUnits="userSpaceOnUse" x1="400.4156" y1="-200.5195" x2="400.4156" y2="333.2725" gradientTransform="matrix(1 0 0 -1 0 802)">
	<stop  offset="0.4171" style="stop-color:#F8FAFC;stop-opacity:0"/>
	<stop  offset="1" style="stop-color:#ECEFF4"/>
</linearGradient>
<ellipse class="st0" cx="400.4" cy="735.6" rx="286.2" ry="266.9"/>
<linearGradient id="SVGID_2_" gradientUnits="userSpaceOnUse" x1="397.4156" y1="180.2725" x2="397.4156" y2="319.2725" gradientTransform="matrix(1 0 0 -1 0 802)">
	<stop  offset="0" style="stop-color:#DFE2E5;stop-opacity:0"/>
	<stop  offset="1" style="stop-color:#D7DCE2;stop-opacity:0.5"/>
</linearGradient>
<ellipse class="st1" cx="397.4" cy="552.2" rx="193.9" ry="69.5"/>
<g>
	
		<linearGradient id="SVGID_3_" gradientUnits="userSpaceOnUse" x1="397.4156" y1="201.2725" x2="397.4156" y2="290.3725" gradientTransform="matrix(1 0 0 -1 0 802)">
		<stop  offset="0" style="stop-color:#A7B1C1"/>
		<stop  offset="1" style="stop-color:#D7DDE2"/>
	</linearGradient>
	<path class="st2" d="M571.4,550.6c0,27.7-77.9,50.1-174,50.1s-174-22.4-174-50.1c0-6,0-10,0-16.7c24.1-19.3,98.6-22.3,174-22.3
		c76.8,0,150.9,0.2,174,20C571.4,542.8,571.4,545,571.4,550.6z"/>
	
		<linearGradient id="SVGID_4_" gradientUnits="userSpaceOnUse" x1="397.4156" y1="219.0725" x2="397.4156" y2="319.2725" gradientTransform="matrix(1 0 0 -1 0 802)">
		<stop  offset="0" style="stop-color:#C6D0E0"/>
		<stop  offset="1" style="stop-color:#FFFFFF"/>
	</linearGradient>
	<ellipse class="st3" cx="397.4" cy="532.8" rx="174" ry="50.1"/>
</g>
<g>
	
		<linearGradient id="SVGID_5_" gradientUnits="userSpaceOnUse" x1="433.0578" y1="244.8" x2="433.0578" y2="290" gradientTransform="matrix(1 0 0 -1 0 802)">
		<stop  offset="0" style="stop-color:#CED8E0;stop-opacity:0"/>
		<stop  offset="1" style="stop-color:#B4C0CC"/>
	</linearGradient>
	<polygon class="st4" points="573,557.2 307,552.2 293.1,512 514.1,512 	"/>
</g>
<linearGradient id="形状结合_1_" gradientUnits="userSpaceOnUse" x1="97.8705" y1="788.5439" x2="97.8705" y2="790.4552" gradientTransform="matrix(40.61 0 0 -26.2 -3723.1196 20906.7031)">
	<stop  offset="0" style="stop-color:#F5F7FA;stop-opacity:0"/>
	<stop  offset="1" style="stop-color:#D9DEE4"/>
</linearGradient>
<path id="形状结合" class="st5" d="M250.5,196.8c15.6,0,29.5,7.1,38.7,18.1c2-0.4,4.1-0.6,6.2-0.6c18.5,0,33.5,14.9,33.5,33.4
	s-15,33.4-33.5,33.4c-2.6,0-5.1-0.3-7.5-0.8c-9.2,10.2-22.6,16.7-37.4,16.7c-14.7,0-28-6.3-37.2-16.4c-2,0.4-4,0.5-6,0.5
	c-18.5,0-33.5-14.9-33.5-33.4s15-33.4,33.5-33.4c1.6,0,3.2,0.1,4.7,0.3C221.2,203.7,235.1,196.8,250.5,196.8z"/>
<linearGradient id="形状结合备份_1_" gradientUnits="userSpaceOnUse" x1="99.8366" y1="791.259" x2="99.8366" y2="793.1702" gradientTransform="matrix(51.745 0 0 -33.405 -4661.7344 26628.7832)">
	<stop  offset="0" style="stop-color:#F5F7FA;stop-opacity:0"/>
	<stop  offset="1" style="stop-color:#D9DEE4"/>
</linearGradient>
<path id="形状结合备份" class="st6" d="M503.2,132.9c19.9,0,37.6,9,49.4,23.1c2.6-0.5,5.2-0.7,8-0.7
	c23.6,0,42.7,19.1,42.7,42.6s-19.1,42.6-42.7,42.6c-3.3,0-6.5-0.4-9.6-1.1c-11.7,13-28.8,21.2-47.7,21.2c-18.8,0-35.6-8-47.4-20.9
	c-2.5,0.5-5.1,0.7-7.7,0.7c-23.6,0-42.7-19.1-42.7-42.6s19.1-42.6,42.7-42.6c2,0,4,0.1,6,0.4C465.9,141.8,483.5,132.9,503.2,132.9z"
	/>
<g id="编组-6" transform="translate(57.515382, 71.394997)">
	<polygon id="Fill-3" class="st7" points="107.6,512.8 116.3,512.8 116.3,443.7 107.6,443.7 	"/>
	
		<linearGradient id="Fill-1_3_" gradientUnits="userSpaceOnUse" x1="39.0055" y1="708.8625" x2="36.6639" y2="708.8625" gradientTransform="matrix(15.72 0 0 -26.2 -490.3282 19015.8496)">
		<stop  offset="0" style="stop-color:#D9DEE4"/>
		<stop  offset="1" style="stop-color:#F5F7FA"/>
	</linearGradient>
	<path id="Fill-1" class="st8" d="M137.9,461c0,20.5-11.6,25.8-25.9,25.8S86,481.6,86,461s11.6-60.6,25.9-60.6
		S137.9,440.5,137.9,461"/>
	<polygon id="路径-20" class="st7" points="120.2,510.6 73.1,526.2 111.5,510.6 	"/>
</g>
<g id="编组-5" transform="translate(39.175383, 96.939996)">
	<polygon id="Fill-3_1_" class="st9" points="280.5,572.4 286.4,572.4 286.4,525.4 280.5,525.4 	"/>
	
		<linearGradient id="Fill-1_4_" gradientUnits="userSpaceOnUse" x1="73.8962" y1="670.8529" x2="71.5546" y2="670.8529" gradientTransform="matrix(10.6896 0 0 -17.816 -499.0704 12477.2686)">
		<stop  offset="0" style="stop-color:#D9DEE4"/>
		<stop  offset="1" style="stop-color:#F5F7FA"/>
	</linearGradient>
	<path id="Fill-1_1_" class="st10" d="M301.1,537.2c0,14-7.9,17.6-17.6,17.6s-17.6-3.6-17.6-17.6s7.9-41.2,17.6-41.2
		S301.1,523.2,301.1,537.2"/>
	<polygon id="路径-20_1_" class="st9" points="289,570.9 257,581.5 283.2,570.9 	"/>
</g>
<g id="编组-3" transform="translate(186.930385, 97.500000) scale(-1, 1) translate(-186.930385, -97.500000) translate(179.930385, 82.500000)">
	<polygon id="Fill-3_2_" class="st9" points="-431.3,522.5 -425.4,522.5 -425.4,475.5 -431.3,475.5 	"/>
	
		<linearGradient id="Fill-1_5_" gradientUnits="userSpaceOnUse" x1="129.7348" y1="688.7028" x2="127.3932" y2="688.7028" gradientTransform="matrix(-10.6896 0 0 -17.816 965.5263 12734.5322)">
		<stop  offset="0" style="stop-color:#D9DEE4"/>
		<stop  offset="1" style="stop-color:#F5F7FA"/>
	</linearGradient>
	<path id="Fill-1_2_" class="st11" d="M-411.1,476.4c0,14-7.9,17.6-17.6,17.6c-9.7,0-17.6-3.6-17.6-17.6s7.9-41.2,17.6-41.2
		C-419,435.2-411.1,462.4-411.1,476.4"/>
	<polygon id="路径-20_2_" class="st9" points="-424.2,522.6 -456.2,533.2 -430.1,522.6 	"/>
</g>
<g id="组_5826" transform="translate(197.744 218.957)">
	
		<linearGradient id="矩形_1_" gradientUnits="userSpaceOnUse" x1="-97.8453" y1="565.2546" x2="-94.2487" y2="566.7695" gradientTransform="matrix(29.684 0 0 -30.127 3009.9426 17252.7051)">
		<stop  offset="0" style="stop-color:#C6D0E0"/>
		<stop  offset="1" style="stop-color:#EFF2F6"/>
	</linearGradient>
	<path id="矩形" class="st12" d="M94.3,163.6l102-18.2v103.5h-102V163.6z"/>
	
		<linearGradient id="矩形-2_1_" gradientUnits="userSpaceOnUse" x1="-96.991" y1="566.8196" x2="-93.5558" y2="566.8196" gradientTransform="matrix(35.886 0 0 -32.342 3676.8445 18533.0703)">
		<stop  offset="0" style="stop-color:#C6D0E0"/>
		<stop  offset="1" style="stop-color:#EFF2F6"/>
	</linearGradient>
	<path id="矩形-2" class="st13" d="M196.2,145.4l123.3,16.7v94.4H196.2V145.4z"/>
	
		<linearGradient id="矩形-3_1_" gradientUnits="userSpaceOnUse" x1="-96.549" y1="570.6712" x2="-97.93" y2="568.9433" gradientTransform="matrix(34.557 0 0 -50.064 3510.6143 28782.4473)">
		<stop  offset="0" style="stop-color:#C6D0E0"/>
		<stop  offset="1" style="stop-color:#EFF2F6"/>
	</linearGradient>
	<path id="矩形-3" class="st14" d="M94.3,163.6L213,188.6v147L94.3,303.9V163.6z"/>
	
		<linearGradient id="矩形-4_1_" gradientUnits="userSpaceOnUse" x1="-97.5265" y1="558.3497" x2="-96.7433" y2="559.394" gradientTransform="matrix(34.114 0 0 -19.23 3465.5408 10966.3975)">
		<stop  offset="0" style="stop-color:#CED8E0;stop-opacity:0"/>
		<stop  offset="1" style="stop-color:#B4C0CC"/>
	</linearGradient>
	<path id="矩形-4" class="st15" d="M95.8,188.8H213l-11.8,66.1L95.8,227.6V188.8z"/>
	
		<linearGradient id="矩形-5_1_" gradientUnits="userSpaceOnUse" x1="-93.9868" y1="568.5891" x2="-93.9868" y2="571.4403" gradientTransform="matrix(31.013 0 0 -50.507 3181.0459 29038.0723)">
		<stop  offset="0" style="stop-color:#C6D0E0"/>
		<stop  offset="1" style="stop-color:#EFF2F6"/>
	</linearGradient>
	<path id="矩形-5" class="st16" d="M213,188.7l106.5-26.6v138.4L213,335.6V188.7z"/>
	
		<linearGradient id="矩形-6_1_" gradientUnits="userSpaceOnUse" x1="-93.4847" y1="559.8691" x2="-94.1099" y2="561.281" gradientTransform="matrix(30.57 0 0 -21.253 3135.531 12135.7783)">
		<stop  offset="0" style="stop-color:#CED8E0;stop-opacity:0"/>
		<stop  offset="1" style="stop-color:#B4C0CC"/>
	</linearGradient>
	<path id="矩形-6" class="st17" d="M213,188.8h105v37.7l-95.3,35.3L213,188.8z"/>
	
		<linearGradient id="矩形-7_1_" gradientUnits="userSpaceOnUse" x1="-98.3483" y1="562.1334" x2="-97.8364" y2="563.2464" gradientTransform="matrix(41.646 0 0 -23.059 4231.8765 13172.3936)">
		<stop  offset="0" style="stop-color:#C6D0E0"/>
		<stop  offset="1" style="stop-color:#EFF2F6"/>
	</linearGradient>
	<path id="矩形-7" class="st18" d="M94.3,163.6l118.7,25l-23.6,54.2L69.9,212L94.3,163.6z"/>
	
		<linearGradient id="矩形-8_1_" gradientUnits="userSpaceOnUse" x1="-95.2257" y1="561.0236" x2="-95.2257" y2="564.4588" gradientTransform="matrix(37.637 0 0 -23.502 3861.6213 13428.0244)">
		<stop  offset="0" style="stop-color:#C6D0E0"/>
		<stop  offset="1" style="stop-color:#EFF2F6"/>
	</linearGradient>
	<path id="矩形-8" class="st19" d="M213,188.7l106.5-26.6l22.8,47.8l-101.5,32.9L213,188.7z"/>
	<path id="路径-2" class="st20" d="M213,188.7l27.8,54.2l101.5-32.9"/>
	<path id="路径-12" class="st21" d="M213,188.7l-23.6,54.2L69.9,212"/>
	<path id="路径-13" class="st22" d="M213,188.7l106.5-26.6l-123.3-16.7l-102,18.2L213,188.7z"/>
</g>
</svg>
