<?xml version="1.0" encoding="utf-8"?>
<!-- Generator: Adobe Illustrator 24.0.1, SVG Export Plug-In . SVG Version: 6.00 Build 0)  -->
<svg version="1.1" id="图层_1" xmlns="http://www.w3.org/2000/svg" xmlns:xlink="http://www.w3.org/1999/xlink" x="0px" y="0px"
	 viewBox="0 0 800 800" style="enable-background:new 0 0 800 800;" xml:space="preserve">
<style type="text/css">
	.st0{fill:url(#SVGID_1_);}
	.st1{fill:url(#SVGID_2_);}
	.st2{fill:url(#SVGID_3_);}
	.st3{fill:url(#SVGID_4_);}
	.st4{fill-rule:evenodd;clip-rule:evenodd;fill:url(#形状结合_1_);}
	.st5{fill-rule:evenodd;clip-rule:evenodd;fill:url(#形状结合备份_1_);}
	.st6{fill-rule:evenodd;clip-rule:evenodd;fill:#C2C6CC;}
	.st7{fill-rule:evenodd;clip-rule:evenodd;fill:url(#Fill-1_3_);}
	.st8{fill-rule:evenodd;clip-rule:evenodd;fill:#C2C6CB;}
	.st9{fill-rule:evenodd;clip-rule:evenodd;fill:url(#Fill-1_4_);}
	.st10{fill-rule:evenodd;clip-rule:evenodd;fill:url(#Fill-1_5_);}
	.st11{fill:url(#SVGID_5_);}
	.st12{fill:none;stroke:#BEC6C5;stroke-linecap:round;stroke-dasharray:2,4;}
	.st13{fill:url(#路径_1_);}
	.st14{fill:url(#形状_1_);}
	.st15{fill:url(#椭圆形备份-2_1_);}
	.st16{fill:url(#椭圆形_1_);}
	.st17{fill-rule:evenodd;clip-rule:evenodd;fill:url(#矩形-2_1_);}
	.st18{fill:url(#椭圆形备份_1_);}
	.st19{fill:url(#椭圆形备份-2-2_1_);}
	.st20{fill:url(#椭圆形-2_1_);}
	.st21{fill:url(#椭圆形-3_1_);}
	.st22{fill-rule:evenodd;clip-rule:evenodd;fill:url(#路径-3_1_);}
	.st23{fill:url(#椭圆形-4_1_);}
	.st24{fill:url(#SVGID_6_);}
	.st25{fill:url(#SVGID_7_);}
</style>
<linearGradient id="SVGID_1_" gradientUnits="userSpaceOnUse" x1="400.4156" y1="-171" x2="400.4156" y2="333.2725" gradientTransform="matrix(1 0 0 -1 0 802)">
	<stop  offset="0.4171" style="stop-color:#F8FAFC;stop-opacity:0"/>
	<stop  offset="1" style="stop-color:#ECEFF4"/>
</linearGradient>
<ellipse class="st0" cx="400.4" cy="720.9" rx="286.2" ry="252.1"/>
<linearGradient id="SVGID_2_" gradientUnits="userSpaceOnUse" x1="397.4156" y1="180.2725" x2="397.4156" y2="319.2725" gradientTransform="matrix(1 0 0 -1 0 802)">
	<stop  offset="0" style="stop-color:#DFE2E5;stop-opacity:0"/>
	<stop  offset="1" style="stop-color:#D7DCE2;stop-opacity:0.5"/>
</linearGradient>
<ellipse class="st1" cx="397.4" cy="552.2" rx="193.9" ry="69.5"/>
<g>
	
		<linearGradient id="SVGID_3_" gradientUnits="userSpaceOnUse" x1="397.4156" y1="201.2725" x2="397.4156" y2="290.3725" gradientTransform="matrix(1 0 0 -1 0 802)">
		<stop  offset="0" style="stop-color:#A7B1C1"/>
		<stop  offset="1" style="stop-color:#D7DDE2"/>
	</linearGradient>
	<path class="st2" d="M571.4,550.6c0,27.7-77.9,50.1-174,50.1s-174-22.4-174-50.1c0-6,0-10,0-16.7c24.1-19.3,98.6-22.3,174-22.3
		c76.8,0,150.9,0.2,174,20C571.4,542.8,571.4,545,571.4,550.6z"/>
	
		<linearGradient id="SVGID_4_" gradientUnits="userSpaceOnUse" x1="397.4156" y1="219.0725" x2="397.4156" y2="319.2725" gradientTransform="matrix(1 0 0 -1 0 802)">
		<stop  offset="0" style="stop-color:#C6D0E0"/>
		<stop  offset="1" style="stop-color:#FFFFFF"/>
	</linearGradient>
	<ellipse class="st3" cx="397.4" cy="532.8" rx="174" ry="50.1"/>
</g>
<linearGradient id="形状结合_1_" gradientUnits="userSpaceOnUse" x1="97.8705" y1="788.5439" x2="97.8705" y2="790.4552" gradientTransform="matrix(40.61 0 0 -26.2 -3723.1196 20906.7031)">
	<stop  offset="0" style="stop-color:#F5F7FA;stop-opacity:0"/>
	<stop  offset="1" style="stop-color:#D9DEE4"/>
</linearGradient>
<path id="形状结合" class="st4" d="M250.5,196.8c15.6,0,29.5,7.1,38.7,18.1c2-0.4,4.1-0.6,6.2-0.6c18.5,0,33.5,14.9,33.5,33.4
	s-15,33.4-33.5,33.4c-2.6,0-5.1-0.3-7.5-0.8c-9.2,10.2-22.6,16.7-37.4,16.7c-14.7,0-28-6.3-37.2-16.4c-2,0.4-4,0.5-6,0.5
	c-18.5,0-33.5-14.9-33.5-33.4s15-33.4,33.5-33.4c1.6,0,3.2,0.1,4.7,0.3C221.2,203.7,235.1,196.8,250.5,196.8z"/>
<linearGradient id="形状结合备份_1_" gradientUnits="userSpaceOnUse" x1="99.8366" y1="791.259" x2="99.8366" y2="793.1702" gradientTransform="matrix(51.745 0 0 -33.405 -4661.7344 26628.7832)">
	<stop  offset="0" style="stop-color:#F5F7FA;stop-opacity:0"/>
	<stop  offset="1" style="stop-color:#D9DEE4"/>
</linearGradient>
<path id="形状结合备份" class="st5" d="M503.2,132.9c19.9,0,37.6,9,49.4,23.1c2.6-0.5,5.2-0.7,8-0.7
	c23.6,0,42.7,19.1,42.7,42.6s-19.1,42.6-42.7,42.6c-3.3,0-6.5-0.4-9.6-1.1c-11.7,13-28.8,21.2-47.7,21.2c-18.8,0-35.6-8-47.4-20.9
	c-2.5,0.5-5.1,0.7-7.7,0.7c-23.6,0-42.7-19.1-42.7-42.6s19.1-42.6,42.7-42.6c2,0,4,0.1,6,0.4C465.9,141.8,483.5,132.9,503.2,132.9z"
	/>
<g id="编组-6" transform="translate(57.515382, 71.394997)">
	<polygon id="Fill-3" class="st6" points="107.6,512.8 116.3,512.8 116.3,443.7 107.6,443.7 	"/>
	
		<linearGradient id="Fill-1_3_" gradientUnits="userSpaceOnUse" x1="39.0055" y1="708.8625" x2="36.6639" y2="708.8625" gradientTransform="matrix(15.72 0 0 -26.2 -490.3282 19015.8496)">
		<stop  offset="0" style="stop-color:#D9DEE4"/>
		<stop  offset="1" style="stop-color:#F5F7FA"/>
	</linearGradient>
	<path id="Fill-1" class="st7" d="M137.9,461c0,20.5-11.6,25.8-25.9,25.8S86,481.6,86,461s11.6-60.6,25.9-60.6
		S137.9,440.5,137.9,461"/>
	<polygon id="路径-20" class="st6" points="120.2,510.6 73.1,526.2 111.5,510.6 	"/>
</g>
<g id="编组-5" transform="translate(39.175383, 96.939996)">
	<polygon id="Fill-3_1_" class="st8" points="280.5,572.4 286.4,572.4 286.4,525.4 280.5,525.4 	"/>
	
		<linearGradient id="Fill-1_4_" gradientUnits="userSpaceOnUse" x1="73.8962" y1="670.8529" x2="71.5546" y2="670.8529" gradientTransform="matrix(10.6896 0 0 -17.816 -499.0704 12477.2686)">
		<stop  offset="0" style="stop-color:#D9DEE4"/>
		<stop  offset="1" style="stop-color:#F5F7FA"/>
	</linearGradient>
	<path id="Fill-1_1_" class="st9" d="M301.1,537.2c0,14-7.9,17.6-17.6,17.6s-17.6-3.6-17.6-17.6s7.9-41.2,17.6-41.2
		S301.1,523.2,301.1,537.2"/>
	<polygon id="路径-20_1_" class="st8" points="289,570.9 257,581.5 283.2,570.9 	"/>
</g>
<g id="编组-3" transform="translate(186.930385, 97.500000) scale(-1, 1) translate(-186.930385, -97.500000) translate(179.930385, 82.500000)">
	<polygon id="Fill-3_2_" class="st8" points="-431.3,522.5 -425.4,522.5 -425.4,475.5 -431.3,475.5 	"/>
	
		<linearGradient id="Fill-1_5_" gradientUnits="userSpaceOnUse" x1="129.7348" y1="688.7028" x2="127.3932" y2="688.7028" gradientTransform="matrix(-10.6896 0 0 -17.816 965.5263 12734.5322)">
		<stop  offset="0" style="stop-color:#D9DEE4"/>
		<stop  offset="1" style="stop-color:#F5F7FA"/>
	</linearGradient>
	<path id="Fill-1_2_" class="st10" d="M-411.1,476.4c0,14-7.9,17.6-17.6,17.6c-9.7,0-17.6-3.6-17.6-17.6s7.9-41.2,17.6-41.2
		C-419,435.2-411.1,462.4-411.1,476.4"/>
	<polygon id="路径-20_2_" class="st8" points="-424.2,522.6 -456.2,533.2 -430.1,522.6 	"/>
</g>
<linearGradient id="SVGID_5_" gradientUnits="userSpaceOnUse" x1="412.2454" y1="535.9784" x2="412.2546" y2="519.9782" gradientTransform="matrix(0.9692 0.2464 -0.2464 0.9692 140.5795 -93.2893)">
	<stop  offset="0" style="stop-color:#C6D0E0"/>
	<stop  offset="1" style="stop-color:#EFF2F6"/>
</linearGradient>
<path class="st11" d="M472,535.8c-1.1,4.3-29.7,0.7-64-8c-34.3-8.7-61.1-19.2-60.1-23.5s29.7-0.7,64,8
	C446.2,521,473.1,531.5,472,535.8z"/>
<g id="组_5870" transform="translate(206.222 112.835)">
	<line id="直线-2" class="st12" x1="256" y1="223" x2="255" y2="167"/>
	<line id="直线-2备份" class="st12" x1="271.3" y1="236" x2="327.3" y2="232.4"/>
	<g id="无线-_1_" transform="translate(970.539 87.375) rotate(45)">
		<linearGradient id="路径_1_" gradientUnits="userSpaceOnUse" x1="-410.4144" y1="590.0583" x2="-382.382" y2="590.0583">
			<stop  offset="0" style="stop-color:#A7B1C1"/>
			<stop  offset="1" style="stop-color:#D7DDE2"/>
		</linearGradient>
		<path id="路径" class="st13" d="M-383,581.8c-0.5,0-0.9-0.2-1.2-0.5c-4-5-10-7.9-16.4-8c-6.4,0.1-12.4,3-16.4,8
			c-0.6,0.7-1.5,0.7-2.2,0.2c-0.7-0.6-0.7-1.5-0.2-2.2c2.4-2.9,5.4-5.2,8.7-6.8c3.1-1.5,6.5-2.3,10-2.3c3.5,0,6.9,0.8,10,2.3
			c3.4,1.6,6.3,4,8.7,6.8c0.6,0.6,0.5,1.6-0.2,2.2C-382.2,581.6-382.6,581.8-383,581.8L-383,581.8z"/>
		<linearGradient id="形状_1_" gradientUnits="userSpaceOnUse" x1="-407.6805" y1="594.8307" x2="-387.3954" y2="594.8307">
			<stop  offset="0" style="stop-color:#A7B1C1"/>
			<stop  offset="1" style="stop-color:#D7DDE2"/>
		</linearGradient>
		<path id="形状" class="st14" d="M-388.9,588.8c-0.5,0-0.9-0.2-1.2-0.5c-2.5-3.2-6.3-5.1-10.4-5.1c-4.1,0.1-7.9,2-10.4,5.1
			c-0.6,0.6-1.6,0.7-2.2,0.1c-0.6-0.5-0.7-1.5-0.2-2.1c1.6-2,3.7-3.5,6-4.6c2.1-1,4.5-1.6,6.8-1.6c2.4,0,4.7,0.5,6.8,1.6
			c2.3,1.1,4.3,2.7,6,4.6c0.6,0.6,0.5,1.6-0.2,2.2C-388.1,588.6-388.5,588.8-388.9,588.8L-388.9,588.8z M-394.4,595.3
			c-0.5,0-0.9-0.2-1.2-0.5c-1.2-1.5-3-2.4-4.9-2.4c-1.9,0-3.7,0.9-4.9,2.4c-0.6,0.7-1.5,0.7-2.2,0.2s-0.7-1.5-0.2-2.2
			c0.9-1.1,2.1-2,3.4-2.6c2.5-1.2,5.3-1.2,7.8,0c1.3,0.6,2.4,1.5,3.4,2.6c0.6,0.6,0.5,1.6-0.2,2.2
			C-393.7,595.1-394.1,595.3-394.4,595.3L-394.4,595.3z"/>
	</g>
	
		<linearGradient id="椭圆形备份-2_1_" gradientUnits="userSpaceOnUse" x1="-186.2726" y1="642.9677" x2="-183.0116" y2="643.4751" gradientTransform="matrix(15.0718 -0.2587 -0.1581 -9.2106 3052.8411 6269.9053)">
		<stop  offset="0" style="stop-color:#A7B1C1"/>
		<stop  offset="1" style="stop-color:#D7DDE2"/>
	</linearGradient>
	<path id="椭圆形备份-2" class="st15" d="M165.3,379.8c12.3-0.2,22.5,5.7,22.6,13.3c0.1,7.5-9.8,13.8-22.1,14
		c-12.3,0.2-22.5-5.7-22.6-13.3C143,386.3,152.9,380,165.3,379.8z"/>
	
		<linearGradient id="椭圆形_1_" gradientUnits="userSpaceOnUse" x1="-186.2216" y1="633.5355" x2="-183.4562" y2="633.5355" gradientTransform="matrix(15.0666 -0.4724 -0.2362 -7.5343 3099.8464 5076.9536)">
		<stop  offset="0" style="stop-color:#EFF2F6"/>
		<stop  offset="1" style="stop-color:#C6D0E0"/>
	</linearGradient>
	<path id="椭圆形" class="st16" d="M165.2,379.8c12.3-0.4,22.5,4.3,22.7,10.5c0.2,6.2-9.7,11.5-22,11.9
		c-12.3,0.4-22.5-4.3-22.7-10.5C143,385.5,152.8,380.2,165.2,379.8z"/>
	
		<linearGradient id="矩形-2_1_" gradientUnits="userSpaceOnUse" x1="-179.0248" y1="658.3038" x2="-178.0457" y2="656.3159" gradientTransform="matrix(6.457 -1.8544 -4.2275 -14.7196 4091.9099 9718.334)">
		<stop  offset="0" style="stop-color:#EFF2F6"/>
		<stop  offset="1" style="stop-color:#C6D0E0"/>
	</linearGradient>
	<path id="矩形-2" class="st17" d="M141.8,350.6l19.2-5.5l11.7,40.9c-2.4,2.5-5.3,4.4-8.6,5.5c-3.5,0.8-7.1,0.8-10.6,0
		L141.8,350.6z"/>
	
		<linearGradient id="椭圆形备份_1_" gradientUnits="userSpaceOnUse" x1="-174.3348" y1="682.9793" x2="-173.4327" y2="683.8902" gradientTransform="matrix(10.7692 10.7692 10.1357 -10.1357 -4902.9458 9140.8848)">
		<stop  offset="0" style="stop-color:#EFF2F6"/>
		<stop  offset="1" style="stop-color:#C6D0E0"/>
	</linearGradient>
	<path id="椭圆形备份" class="st18" d="M170.8,326.3c8.8,8.8,9.2,22.7,0.9,31c-8.3,8.3-22.2,7.9-31-0.9
		c-8.8-8.8-9.2-22.7-0.9-31C148.1,317,162,317.5,170.8,326.3z"/>
	
		<linearGradient id="椭圆形备份-2-2_1_" gradientUnits="userSpaceOnUse" x1="-196.6515" y1="686.5396" x2="-194.7495" y2="688.5187" gradientTransform="matrix(38.642 38.642 29.7734 -29.7734 -12688.8076 28338.3301)">
		<stop  offset="0" style="stop-color:#D6DBE2"/>
		<stop  offset="1" style="stop-color:#D7DDE2"/>
	</linearGradient>
	<path id="椭圆形备份-2-2" class="st19" d="M236.1,258.8c31.7,31.7,37.6,77.1,13.2,101.5c-24.4,24.4-69.8,18.5-101.5-13.2
		s-37.6-77.1-13.2-101.5C159,221.3,204.4,227.2,236.1,258.8z"/>
	
		<linearGradient id="椭圆形-2_1_" gradientUnits="userSpaceOnUse" x1="-195.4014" y1="691.4235" x2="-191.3621" y2="691.4266" gradientTransform="matrix(16.9722 35.8141 35.6936 -16.7628 -21193.6973 18808.7773)">
		<stop  offset="0" style="stop-color:#F5F7FA"/>
		<stop  offset="1" style="stop-color:#D9DEE4"/>
	</linearGradient>
	<path id="椭圆形-2" class="st20" d="M245,251.4c32.2,32.2,39.8,76.8,16.9,99.6s-67.4,15.3-99.6-16.9s-39.8-76.8-16.9-99.6
		S212.8,219.2,245,251.4z"/>
	<linearGradient id="椭圆形-3_1_" gradientUnits="userSpaceOnUse" x1="181.8091" y1="294.6103" x2="213.1189" y2="294.6103">
		<stop  offset="0" style="stop-color:#EFF2F6"/>
		<stop  offset="1" style="stop-color:#C6D0E0"/>
	</linearGradient>
	<path id="椭圆形-3" class="st21" d="M183.5,283.3c3.9-4.8,13.4-3.7,21.1,2.5c7.7,6.2,10.8,15.2,6.8,20.1
		c-3.9,4.8-13.4,3.7-21.1-2.5S179.6,288.2,183.5,283.3z"/>
	
		<linearGradient id="路径-3_1_" gradientUnits="userSpaceOnUse" x1="-192.2723" y1="669.0474" x2="-192.0379" y2="668.6972" gradientTransform="matrix(24.3049 -2.5546 -2.0032 -19.059 6239.8569 12524.5986)">
		<stop  offset="0" style="stop-color:#EFF2F6"/>
		<stop  offset="1" style="stop-color:#C6D0E0"/>
	</linearGradient>
	<path id="路径-3" class="st22" d="M194.1,286.9l65.6-51.4l1.3,0.9l-58.4,62.3c-2.9-0.4-5.5-1.6-7.7-3.5
		C193.8,292.6,193.5,289.7,194.1,286.9z"/>
	
		<linearGradient id="椭圆形-4_1_" gradientUnits="userSpaceOnUse" x1="-142.8335" y1="667.6548" x2="-138.7947" y2="667.6548" gradientTransform="matrix(5.9881 2.2629 1.2026 -8.1784 294.0524 6019.8452)">
		<stop  offset="0" style="stop-color:#EFF2F6"/>
		<stop  offset="1" style="stop-color:#C6D0E0"/>
	</linearGradient>
	<circle id="椭圆形-4" class="st23" cx="253.8" cy="240.8" r="12.6"/>
</g>
<g>
	
		<linearGradient id="SVGID_6_" gradientUnits="userSpaceOnUse" x1="517.493" y1="325.6852" x2="517.4948" y2="322.6702" gradientTransform="matrix(0.7071 0.7071 -0.7071 0.7071 374.6583 -290.5052)">
		<stop  offset="0" style="stop-color:#C6D0E0"/>
		<stop  offset="1" style="stop-color:#EFF2F6"/>
	</linearGradient>
	<polygon class="st24" points="519.5,314.9 501.1,296.5 503.2,294.4 521.6,312.8 	"/>
	
		<linearGradient id="SVGID_7_" gradientUnits="userSpaceOnUse" x1="545.1768" y1="339.0136" x2="545.1785" y2="335.9986" gradientTransform="matrix(-0.7071 0.7071 -0.7071 -0.7071 1135.5052 158.5076)">
		<stop  offset="0" style="stop-color:#C6D0E0"/>
		<stop  offset="1" style="stop-color:#EFF2F6"/>
	</linearGradient>
	<polygon class="st25" points="501.1,313.5 519.5,295.1 521.6,297.2 503.2,315.6 	"/>
</g>
</svg>
