<?xml version="1.0" encoding="utf-8"?>
<!-- Generator: Adobe Illustrator 24.0.1, SVG Export Plug-In . SVG Version: 6.00 Build 0)  -->
<svg version="1.1" id="图层_1" xmlns="http://www.w3.org/2000/svg" xmlns:xlink="http://www.w3.org/1999/xlink" x="0px" y="0px"
	 viewBox="0 0 800 800" style="enable-background:new 0 0 800 800;" xml:space="preserve">
<style type="text/css">
	.st0{fill:url(#SVGID_1_);}
	.st1{fill:url(#SVGID_2_);}
	.st2{fill:url(#SVGID_3_);}
	.st3{fill:url(#SVGID_4_);}
	.st4{fill-rule:evenodd;clip-rule:evenodd;fill:url(#形状结合_1_);}
	.st5{fill-rule:evenodd;clip-rule:evenodd;fill:url(#形状结合备份_1_);}
	.st6{fill-rule:evenodd;clip-rule:evenodd;fill:#C2C6CC;}
	.st7{fill-rule:evenodd;clip-rule:evenodd;fill:url(#Fill-1_3_);}
	.st8{fill-rule:evenodd;clip-rule:evenodd;fill:#C2C6CB;}
	.st9{fill-rule:evenodd;clip-rule:evenodd;fill:url(#Fill-1_4_);}
	.st10{fill-rule:evenodd;clip-rule:evenodd;fill:url(#Fill-1_5_);}
	.st11{fill:url(#SVGID_5_);}
	.st12{fill:url(#SVGID_6_);}
	.st13{fill:url(#SVGID_7_);}
	.st14{fill:url(#SVGID_8_);}
	.st15{fill:url(#SVGID_9_);}
	.st16{fill:url(#SVGID_10_);}
	.st17{fill:url(#SVGID_11_);}
	.st18{fill:url(#SVGID_12_);}
</style>
<linearGradient id="SVGID_1_" gradientUnits="userSpaceOnUse" x1="400.4156" y1="-105" x2="400.4156" y2="399.2725" gradientTransform="matrix(1 0 0 -1 0 802)">
	<stop  offset="0.4171" style="stop-color:#F8FAFC;stop-opacity:0"/>
	<stop  offset="1" style="stop-color:#ECEFF4"/>
</linearGradient>
<ellipse class="st0" cx="400.4" cy="654.9" rx="286.2" ry="252.1"/>
<linearGradient id="SVGID_2_" gradientUnits="userSpaceOnUse" x1="397.4156" y1="246.2725" x2="397.4156" y2="385.2725" gradientTransform="matrix(1 0 0 -1 0 802)">
	<stop  offset="0" style="stop-color:#DFE2E5;stop-opacity:0"/>
	<stop  offset="1" style="stop-color:#D7DCE2;stop-opacity:0.5"/>
</linearGradient>
<ellipse class="st1" cx="397.4" cy="486.2" rx="193.9" ry="69.5"/>
<g>
	
		<linearGradient id="SVGID_3_" gradientUnits="userSpaceOnUse" x1="397.4156" y1="277.2725" x2="397.4156" y2="366.3725" gradientTransform="matrix(1 0 0 -1 0 802)">
		<stop  offset="0" style="stop-color:#A7B1C1"/>
		<stop  offset="1" style="stop-color:#D7DDE2"/>
	</linearGradient>
	<path class="st2" d="M571.4,474.6c0,27.7-77.9,50.1-174,50.1s-174-22.4-174-50.1c0-6,0-10,0-16.7c24.1-19.3,98.6-22.3,174-22.3
		c76.8,0,150.9,0.2,174,20C571.4,466.8,571.4,469,571.4,474.6z"/>
	
		<linearGradient id="SVGID_4_" gradientUnits="userSpaceOnUse" x1="397.4156" y1="295.0725" x2="397.4156" y2="395.2725" gradientTransform="matrix(1 0 0 -1 0 802)">
		<stop  offset="0" style="stop-color:#C6D0E0"/>
		<stop  offset="1" style="stop-color:#FFFFFF"/>
	</linearGradient>
	<ellipse class="st3" cx="397.4" cy="456.8" rx="174" ry="50.1"/>
</g>
<linearGradient id="形状结合_1_" gradientUnits="userSpaceOnUse" x1="97.8705" y1="788.5439" x2="97.8705" y2="790.4552" gradientTransform="matrix(40.61 0 0 -26.2 -3723.1196 20906.7031)">
	<stop  offset="0" style="stop-color:#F5F7FA;stop-opacity:0"/>
	<stop  offset="1" style="stop-color:#D9DEE4"/>
</linearGradient>
<path id="形状结合" class="st4" d="M250.5,196.8c15.6,0,29.5,7.1,38.7,18.1c2-0.4,4.1-0.6,6.2-0.6c18.5,0,33.5,14.9,33.5,33.4
	s-15,33.4-33.5,33.4c-2.6,0-5.1-0.3-7.5-0.8c-9.2,10.2-22.6,16.7-37.4,16.7c-14.7,0-28-6.3-37.2-16.4c-2,0.4-4,0.5-6,0.5
	c-18.5,0-33.5-14.9-33.5-33.4s15-33.4,33.5-33.4c1.6,0,3.2,0.1,4.7,0.3C221.2,203.7,235.1,196.8,250.5,196.8z"/>
<linearGradient id="形状结合备份_1_" gradientUnits="userSpaceOnUse" x1="99.8366" y1="791.259" x2="99.8366" y2="793.1702" gradientTransform="matrix(51.745 0 0 -33.405 -4661.7344 26628.7832)">
	<stop  offset="0" style="stop-color:#F5F7FA;stop-opacity:0"/>
	<stop  offset="1" style="stop-color:#D9DEE4"/>
</linearGradient>
<path id="形状结合备份" class="st5" d="M503.2,132.9c19.9,0,37.6,9,49.4,23.1c2.6-0.5,5.2-0.7,8-0.7
	c23.6,0,42.7,19.1,42.7,42.6s-19.1,42.6-42.7,42.6c-3.3,0-6.5-0.4-9.6-1.1c-11.7,13-28.8,21.2-47.7,21.2c-18.8,0-35.6-8-47.4-20.9
	c-2.5,0.5-5.1,0.7-7.7,0.7c-23.6,0-42.7-19.1-42.7-42.6s19.1-42.6,42.7-42.6c2,0,4,0.1,6,0.4C465.9,141.8,483.5,132.9,503.2,132.9z"
	/>
<g id="编组-6" transform="translate(57.515382, 71.394997)">
	<polygon id="Fill-3" class="st6" points="107.6,446.8 116.3,446.8 116.3,377.7 107.6,377.7 	"/>
	
		<linearGradient id="Fill-1_3_" gradientUnits="userSpaceOnUse" x1="39.0055" y1="711.3816" x2="36.6639" y2="711.3816" gradientTransform="matrix(15.72 0 0 -26.2 -490.3282 19015.8496)">
		<stop  offset="0" style="stop-color:#D9DEE4"/>
		<stop  offset="1" style="stop-color:#F5F7FA"/>
	</linearGradient>
	<path id="Fill-1" class="st7" d="M137.9,395c0,20.5-11.6,25.8-25.9,25.8S86,415.6,86,395s11.6-60.6,25.9-60.6
		S137.9,374.5,137.9,395"/>
	<polygon id="路径-20" class="st6" points="120.2,444.6 73.1,460.2 111.5,444.6 	"/>
</g>
<g id="编组-5" transform="translate(39.175383, 96.939996)">
	<polygon id="Fill-3_1_" class="st8" points="280.5,506.4 286.4,506.4 286.4,459.4 280.5,459.4 	"/>
	
		<linearGradient id="Fill-1_4_" gradientUnits="userSpaceOnUse" x1="73.8962" y1="674.5574" x2="71.5546" y2="674.5574" gradientTransform="matrix(10.6896 0 0 -17.816 -499.0704 12477.2686)">
		<stop  offset="0" style="stop-color:#D9DEE4"/>
		<stop  offset="1" style="stop-color:#F5F7FA"/>
	</linearGradient>
	<path id="Fill-1_1_" class="st9" d="M301.1,471.2c0,14-7.9,17.6-17.6,17.6s-17.6-3.6-17.6-17.6s7.9-41.2,17.6-41.2
		S301.1,457.2,301.1,471.2"/>
	<polygon id="路径-20_1_" class="st8" points="289,504.9 257,515.5 283.2,504.9 	"/>
</g>
<g id="编组-3" transform="translate(186.930385, 97.500000) scale(-1, 1) translate(-186.930385, -97.500000) translate(179.930385, 82.500000)">
	<polygon id="Fill-3_2_" class="st8" points="-431.3,456.5 -425.4,456.5 -425.4,409.5 -431.3,409.5 	"/>
	
		<linearGradient id="Fill-1_5_" gradientUnits="userSpaceOnUse" x1="129.7348" y1="692.4074" x2="127.3932" y2="692.4074" gradientTransform="matrix(-10.6896 0 0 -17.816 965.5263 12734.5322)">
		<stop  offset="0" style="stop-color:#D9DEE4"/>
		<stop  offset="1" style="stop-color:#F5F7FA"/>
	</linearGradient>
	<path id="Fill-1_2_" class="st10" d="M-411.1,410.4c0,14-7.9,17.6-17.6,17.6c-9.7,0-17.6-3.6-17.6-17.6s7.9-41.2,17.6-41.2
		C-419,369.2-411.1,396.4-411.1,410.4"/>
	<polygon id="路径-20_2_" class="st8" points="-424.2,456.6 -456.2,467.2 -430.1,456.6 	"/>
</g>
<linearGradient id="SVGID_5_" gradientUnits="userSpaceOnUse" x1="398.4001" y1="472.0139" x2="398.4094" y2="456.0138" gradientTransform="matrix(1.1385 0.2895 -0.2464 0.9692 81.5911 -108.289)">
	<stop  offset="0" style="stop-color:#C6D0E0"/>
	<stop  offset="1" style="stop-color:#EFF2F6"/>
</linearGradient>
<path class="st11" d="M493.7,475.3c-1.1,4.3-34.6-0.5-74.8-10.8c-40.2-10.2-72-22-70.9-26.3s34.6,0.5,74.8,10.8
	C463.1,459.2,494.8,471,493.7,475.3z"/>
<g>
	
		<linearGradient id="SVGID_6_" gradientUnits="userSpaceOnUse" x1="561.3337" y1="331.342" x2="561.3354" y2="328.327" gradientTransform="matrix(0.7071 0.7071 -0.7071 0.7071 374.6583 -290.5052)">
		<stop  offset="0" style="stop-color:#C6D0E0"/>
		<stop  offset="1" style="stop-color:#EFF2F6"/>
	</linearGradient>
	<polygon class="st12" points="546.5,349.9 528.1,331.5 530.2,329.4 548.6,347.8 	"/>
	
		<linearGradient id="SVGID_7_" gradientUnits="userSpaceOnUse" x1="550.8337" y1="295.173" x2="550.8354" y2="292.158" gradientTransform="matrix(-0.7071 0.7071 -0.7071 -0.7071 1135.5052 158.5076)">
		<stop  offset="0" style="stop-color:#C6D0E0"/>
		<stop  offset="1" style="stop-color:#EFF2F6"/>
	</linearGradient>
	<polygon class="st13" points="528.1,348.5 546.5,330.1 548.6,332.2 530.2,350.6 	"/>
</g>
<g>
	
		<linearGradient id="SVGID_8_" gradientUnits="userSpaceOnUse" x1="-1072.7296" y1="1464.6084" x2="-1059.9374" y2="1464.6084" gradientTransform="matrix(-0.67 -0.74 0.74 -0.67 -1415.4063 601.64)">
		<stop  offset="0" style="stop-color:#EFF2F6"/>
		<stop  offset="1" style="stop-color:#C6D0E0"/>
	</linearGradient>
	<path class="st14" d="M414.1,374l-65,58.9c-2.6,2.3-2.8,6.4-0.5,9c0,0,0,0,0.1,0.1c1.1,1.3,2.7,2,4.4,2.1c1.7,0.1,3.4-0.5,4.6-1.6
		l65-59l0.1-0.2c-0.8-0.7-1.6-1.4-2.3-2.2l-5.7-6.4c-0.2-0.3-0.5-0.5-0.7-0.8L414.1,374z"/>
	<linearGradient id="SVGID_9_" gradientUnits="userSpaceOnUse" x1="407.7318" y1="339.7309" x2="494.2299" y2="339.7309">
		<stop  offset="0" style="stop-color:#A7B1C1"/>
		<stop  offset="1" style="stop-color:#D7DDE2"/>
	</linearGradient>
	<path class="st15" d="M489.1,307.4c-13.2-14.5-40.5-11.2-61,7.4c-20.2,18.3-26.2,44.5-14,59.2c0.2,0.3,0.5,0.5,0.7,0.8l5.7,6.4
		c-13.1-14.6-7.1-41.4,13.3-60c20.2-18.3,47-21.8,60.4-8l0,0L489.1,307.4z"/>
	<linearGradient id="SVGID_10_" gradientUnits="userSpaceOnUse" x1="413.4895" y1="347.392" x2="501.8065" y2="347.392">
		<stop  offset="0" style="stop-color:#F5F7FA"/>
		<stop  offset="1" style="stop-color:#D9DEE4"/>
	</linearGradient>
	<path class="st16" d="M481.5,373.7c20.5-18.6,26.5-45.5,13.3-60l-0.6-0.6c-13.4-13.8-40.2-10.4-60.4,8
		c-20.5,18.6-26.5,45.5-13.3,60c0.7,0.8,1.5,1.5,2.3,2.2C436.6,395.2,462.1,391.3,481.5,373.7z M480,372
		c-18.4,16.7-43,19.7-54.8,6.6c-0.7-0.7-1.3-1.5-1.9-2.4l0,0c-9.2-13.4-3.5-35.7,13.9-51.5s40-19.3,52.5-8.8l0,0
		c0.8,0.7,1.5,1.4,2.2,2.1C503.8,331.2,498.4,355.3,480,372z"/>
	<linearGradient id="SVGID_11_" gradientUnits="userSpaceOnUse" x1="423.3006" y1="351.3763" x2="498.2162" y2="351.3763">
		<stop  offset="0" style="stop-color:#A7B1C1"/>
		<stop  offset="1" style="stop-color:#D7DDE2"/>
	</linearGradient>
	<path class="st17" d="M491.9,318.1c-0.7-0.8-1.4-1.5-2.2-2.1c10.6,11.8,4.5,34.7-13.9,51.4c-18.4,16.7-41.8,20.5-52.6,8.8
		c0.6,0.8,1.2,1.6,1.9,2.4c11.8,13.1,36.4,10.1,54.8-6.6C498.4,355.3,503.8,331.2,491.9,318.1z"/>
	
		<linearGradient id="SVGID_12_" gradientUnits="userSpaceOnUse" x1="-1041.0029" y1="1578.4027" x2="-1098.6315" y2="1545.1378" gradientTransform="matrix(-0.67 -0.74 0.74 -0.67 -1415.4063 601.64)">
		<stop  offset="0" style="stop-color:#F5F7FA"/>
		<stop  offset="1" style="stop-color:#D9DEE4"/>
	</linearGradient>
	<path class="st18" d="M489.7,316c-12.5-10.5-35.2-7-52.6,8.8c-17.3,15.7-23.1,38-13.9,51.5l0,0c10.7,11.7,34.1,7.9,52.6-8.8
		S500.4,327.8,489.7,316L489.7,316z"/>
</g>
</svg>
